<svg width="445" height="168" viewBox="0 0 445 168" fill="none" xmlns="http://www.w3.org/2000/svg">
<mask id="mask0_21_13" style="mask-type:alpha" maskUnits="userSpaceOnUse" x="10" y="0" width="406" height="157">
<path d="M10 127.021V101.78L73.1346 2.07261H94.8441V37.0108H81.9956L42.195 100.151V101.336H131.913V127.021H10ZM82.5864 153.669V119.323L83.1771 108.146V2.07261H113.157V153.669H82.5864Z" fill="#2862FF"/>
<path d="M212.511 157C199.81 156.951 188.881 153.817 179.725 147.599C170.618 141.381 163.603 132.375 158.68 120.581C153.807 108.787 151.395 94.5997 151.444 78.0189C151.444 61.4873 153.881 47.3986 158.754 35.7525C163.677 24.1064 170.692 15.2485 179.799 9.1787C188.955 3.05957 199.859 0 212.511 0C225.162 0 236.042 3.05957 245.149 9.1787C254.305 15.2978 261.345 24.1804 266.268 35.8265C271.19 47.4232 273.627 61.4873 273.578 78.0189C273.578 94.6491 271.116 108.861 266.194 120.655C261.32 132.449 254.33 141.455 245.223 147.673C236.116 153.891 225.212 157 212.511 157ZM212.511 130.426C221.175 130.426 228.091 126.059 233.26 117.324C238.429 108.59 240.989 95.488 240.94 78.0189C240.94 66.5208 239.758 56.9473 237.395 49.2984C235.082 41.6495 231.783 35.9005 227.501 32.0514C223.267 28.2023 218.27 26.2777 212.511 26.2777C203.896 26.2777 197.004 30.5956 191.835 39.2315C186.666 47.8674 184.057 60.7965 184.008 78.0189C184.008 89.6649 185.165 99.3865 187.478 107.183C189.841 114.931 193.164 120.754 197.447 124.653C201.73 128.502 206.751 130.426 212.511 130.426Z" fill="#2862FF"/>
<path d="M294.087 127.021V101.78L357.222 2.07261H378.931V37.0108H366.083L326.282 100.151V101.336H416V127.021H294.087ZM366.674 153.669V119.323L367.264 108.146V2.07261H397.244V153.669H366.674Z" fill="#2862FF"/>
</mask>
<g mask="url(#mask0_21_13)">
<rect x="10" y="124.6" width="406" height="32.4" fill="#56EBFF"/>
</g>
<mask id="mask1_21_13" style="mask-type:alpha" maskUnits="userSpaceOnUse" x="9" y="0" width="406" height="157">
<path d="M9 127.021V101.78L72.1346 2.07261H93.8441V37.0108H80.9956L41.195 100.151V101.336H130.913V127.021H9ZM81.5864 153.669V119.323L82.1771 108.146V2.07261H112.157V153.669H81.5864Z" fill="#2862FF"/>
<path d="M211.511 157C198.81 156.951 187.881 153.817 178.725 147.599C169.618 141.381 162.603 132.375 157.68 120.581C152.807 108.787 150.395 94.5997 150.444 78.0189C150.444 61.4873 152.881 47.3986 157.754 35.7525C162.677 24.1064 169.692 15.2485 178.799 9.1787C187.955 3.05957 198.859 0 211.511 0C224.162 0 235.042 3.05957 244.149 9.1787C253.305 15.2978 260.345 24.1804 265.268 35.8265C270.19 47.4232 272.627 61.4873 272.578 78.0189C272.578 94.6491 270.116 108.861 265.194 120.655C260.32 132.449 253.33 141.455 244.223 147.673C235.116 153.891 224.212 157 211.511 157ZM211.511 130.426C220.175 130.426 227.091 126.059 232.26 117.324C237.429 108.59 239.989 95.488 239.94 78.0189C239.94 66.5208 238.758 56.9473 236.395 49.2984C234.082 41.6495 230.784 35.9005 226.501 32.0514C222.267 28.2023 217.27 26.2777 211.511 26.2777C202.896 26.2777 196.004 30.5956 190.835 39.2315C185.666 47.8674 183.057 60.7965 183.008 78.0189C183.008 89.6649 184.165 99.3865 186.478 107.183C188.841 114.931 192.164 120.754 196.447 124.653C200.73 128.502 205.751 130.426 211.511 130.426Z" fill="#2862FF"/>
<path d="M293.087 127.021V101.78L356.222 2.07261H377.931V37.0108H365.083L325.282 100.151V101.336H415V127.021H293.087ZM365.674 153.669V119.323L366.265 108.146V2.07261H396.244V153.669H365.674Z" fill="#2862FF"/>
</mask>
<g mask="url(#mask1_21_13)">
<rect x="9" y="93.4" width="406" height="31.4" fill="#56EBFF"/>
</g>
<mask id="mask2_21_13" style="mask-type:alpha" maskUnits="userSpaceOnUse" x="29" y="0" width="406" height="157">
<path d="M29 127.021V101.78L92.1346 2.07261H113.844V37.0108H100.996L61.195 100.151V101.336H150.913V127.021H29ZM101.586 153.669V119.323L102.177 108.146V2.07261H132.157V153.669H101.586Z" fill="#2862FF"/>
<path d="M231.511 157C218.81 156.951 207.881 153.817 198.725 147.599C189.618 141.381 182.603 132.375 177.68 120.581C172.807 108.787 170.395 94.5997 170.444 78.0189C170.444 61.4873 172.881 47.3986 177.754 35.7525C182.677 24.1064 189.692 15.2485 198.799 9.1787C207.955 3.05957 218.859 0 231.511 0C244.162 0 255.042 3.05957 264.149 9.1787C273.305 15.2978 280.345 24.1804 285.268 35.8265C290.19 47.4232 292.627 61.4873 292.578 78.0189C292.578 94.6491 290.116 108.861 285.194 120.655C280.32 132.449 273.33 141.455 264.223 147.673C255.116 153.891 244.212 157 231.511 157ZM231.511 130.426C240.175 130.426 247.091 126.059 252.26 117.324C257.429 108.59 259.989 95.488 259.94 78.0189C259.94 66.5208 258.758 56.9473 256.395 49.2984C254.082 41.6495 250.784 35.9005 246.501 32.0514C242.267 28.2023 237.27 26.2777 231.511 26.2777C222.896 26.2777 216.004 30.5956 210.835 39.2315C205.666 47.8674 203.057 60.7965 203.008 78.0189C203.008 89.6649 204.165 99.3865 206.478 107.183C208.841 114.931 212.164 120.754 216.447 124.653C220.73 128.502 225.751 130.426 231.511 130.426Z" fill="#2862FF"/>
<path d="M313.087 127.021V101.78L376.222 2.07261H397.931V37.0108H385.083L345.282 100.151V101.336H435V127.021H313.087ZM385.674 153.669V119.323L386.265 108.146V2.07261H416.244V153.669H385.674Z" fill="#2862FF"/>
</mask>
<g mask="url(#mask2_21_13)">
<rect x="29" y="62" width="406" height="31.4" fill="#56EBFF"/>
</g>
<mask id="mask3_21_13" style="mask-type:alpha" maskUnits="userSpaceOnUse" x="0" y="11" width="406" height="157">
<path d="M0 138.021V112.78L63.1346 13.0726H84.8441V48.0108H71.9956L32.195 111.151V112.336H121.913V138.021H0ZM72.5864 164.669V130.323L73.1771 119.146V13.0726H103.157V164.669H72.5864Z" fill="#2862FF"/>
<path d="M202.511 168C189.81 167.951 178.881 164.817 169.725 158.599C160.618 152.381 153.603 143.375 148.68 131.581C143.807 119.787 141.395 105.6 141.444 89.0189C141.444 72.4873 143.881 58.3986 148.754 46.7525C153.677 35.1064 160.692 26.2485 169.799 20.1787C178.955 14.0596 189.859 11 202.511 11C215.162 11 226.042 14.0596 235.149 20.1787C244.305 26.2978 251.345 35.1804 256.268 46.8265C261.19 58.4232 263.627 72.4873 263.578 89.0189C263.578 105.649 261.116 119.861 256.194 131.655C251.32 143.449 244.33 152.455 235.223 158.673C226.116 164.891 215.212 168 202.511 168ZM202.511 141.426C211.175 141.426 218.091 137.059 223.26 128.324C228.429 119.59 230.989 106.488 230.94 89.0189C230.94 77.5208 229.758 67.9473 227.395 60.2984C225.082 52.6495 221.784 46.9005 217.501 43.0514C213.267 39.2023 208.27 37.2777 202.511 37.2777C193.896 37.2777 187.004 41.5956 181.835 50.2315C176.666 58.8674 174.057 71.7965 174.008 89.0189C174.008 100.665 175.165 110.386 177.478 118.183C179.841 125.931 183.164 131.754 187.447 135.653C191.73 139.502 196.751 141.426 202.511 141.426Z" fill="#2862FF"/>
<path d="M284.087 138.021V112.78L347.222 13.0726H368.931V48.0108H356.083L316.282 111.151V112.336H406V138.021H284.087ZM356.674 164.669V130.323L357.265 119.146V13.0726H387.244V164.669H356.674Z" fill="#2862FF"/>
</mask>
<g mask="url(#mask3_21_13)">
<rect y="41.6" width="406" height="31.4" fill="#56EBFF"/>
</g>
<mask id="mask4_21_13" style="mask-type:alpha" maskUnits="userSpaceOnUse" x="12" y="0" width="406" height="157">
<path d="M12 127.021V101.78L75.1346 2.07261H96.8441V37.0108H83.9956L44.195 100.151V101.336H133.913V127.021H12ZM84.5864 153.669V119.323L85.1771 108.146V2.07261H115.157V153.669H84.5864Z" fill="#2862FF"/>
<path d="M214.511 157C201.81 156.951 190.881 153.817 181.725 147.599C172.618 141.381 165.603 132.375 160.68 120.581C155.807 108.787 153.395 94.5997 153.444 78.0189C153.444 61.4873 155.881 47.3986 160.754 35.7525C165.677 24.1064 172.692 15.2485 181.799 9.1787C190.955 3.05957 201.859 0 214.511 0C227.162 0 238.042 3.05957 247.149 9.1787C256.305 15.2978 263.345 24.1804 268.268 35.8265C273.19 47.4232 275.627 61.4873 275.578 78.0189C275.578 94.6491 273.116 108.861 268.194 120.655C263.32 132.449 256.33 141.455 247.223 147.673C238.116 153.891 227.212 157 214.511 157ZM214.511 130.426C223.175 130.426 230.091 126.059 235.26 117.324C240.429 108.59 242.989 95.488 242.94 78.0189C242.94 66.5208 241.758 56.9473 239.395 49.2984C237.082 41.6495 233.784 35.9005 229.501 32.0514C225.267 28.2023 220.27 26.2777 214.511 26.2777C205.896 26.2777 199.004 30.5956 193.835 39.2315C188.666 47.8674 186.057 60.7965 186.008 78.0189C186.008 89.6649 187.165 99.3865 189.478 107.183C191.841 114.931 195.164 120.754 199.447 124.653C203.73 128.502 208.751 130.426 214.511 130.426Z" fill="#2862FF"/>
<path d="M296.087 127.021V101.78L359.222 2.07261H380.931V37.0108H368.083L328.282 100.151V101.336H418V127.021H296.087ZM368.674 153.669V119.323L369.265 108.146V2.07261H399.244V153.669H368.674Z" fill="#2862FF"/>
</mask>
<g mask="url(#mask4_21_13)">
<rect x="12" width="406" height="31.4" fill="#56EBFF"/>
</g>
<mask id="mask5_21_13" style="mask-type:alpha" maskUnits="userSpaceOnUse" x="36" y="0" width="406" height="157">
<path d="M36 127.021V101.78L99.1346 2.07261H120.844V37.0108H107.996L68.195 100.151V101.336H157.913V127.021H36ZM108.586 153.669V119.323L109.177 108.146V2.07261H139.157V153.669H108.586Z" fill="#2862FF"/>
<path d="M238.511 157C225.81 156.951 214.881 153.817 205.725 147.599C196.618 141.381 189.603 132.375 184.68 120.581C179.807 108.787 177.395 94.5997 177.444 78.0189C177.444 61.4873 179.881 47.3986 184.754 35.7525C189.677 24.1064 196.692 15.2485 205.799 9.1787C214.955 3.05957 225.859 0 238.511 0C251.162 0 262.042 3.05957 271.149 9.1787C280.305 15.2978 287.345 24.1804 292.268 35.8265C297.19 47.4232 299.627 61.4873 299.578 78.0189C299.578 94.6491 297.116 108.861 292.194 120.655C287.32 132.449 280.33 141.455 271.223 147.673C262.116 153.891 251.212 157 238.511 157ZM238.511 130.426C247.175 130.426 254.091 126.059 259.26 117.324C264.429 108.59 266.989 95.488 266.94 78.0189C266.94 66.5208 265.758 56.9473 263.395 49.2984C261.082 41.6495 257.783 35.9005 253.501 32.0514C249.267 28.2023 244.27 26.2777 238.511 26.2777C229.896 26.2777 223.004 30.5956 217.835 39.2315C212.666 47.8674 210.057 60.7965 210.008 78.0189C210.008 89.6649 211.165 99.3865 213.478 107.183C215.841 114.931 219.164 120.754 223.447 124.653C227.73 128.502 232.751 130.426 238.511 130.426Z" fill="#2862FF"/>
<path d="M320.087 127.021V101.78L383.222 2.07261H404.931V37.0108H392.083L352.282 100.151V101.336H442V127.021H320.087ZM392.674 153.669V119.323L393.264 108.146V2.07261H423.244V153.669H392.674Z" fill="#2862FF"/>
</mask>
<g mask="url(#mask5_21_13)">
<rect x="36" y="124.6" width="406" height="32.4" fill="#FF0000"/>
</g>
<mask id="mask6_21_13" style="mask-type:alpha" maskUnits="userSpaceOnUse" x="37" y="0" width="406" height="157">
<path d="M37 127.021V101.78L100.135 2.07261H121.844V37.0108H108.996L69.195 100.151V101.336H158.913V127.021H37ZM109.586 153.669V119.323L110.177 108.146V2.07261H140.157V153.669H109.586Z" fill="#2862FF"/>
<path d="M239.511 157C226.81 156.951 215.881 153.817 206.725 147.599C197.618 141.381 190.603 132.375 185.68 120.581C180.807 108.787 178.395 94.5997 178.444 78.0189C178.444 61.4873 180.881 47.3986 185.754 35.7525C190.677 24.1064 197.692 15.2485 206.799 9.1787C215.955 3.05957 226.859 0 239.511 0C252.162 0 263.042 3.05957 272.149 9.1787C281.305 15.2978 288.345 24.1804 293.268 35.8265C298.19 47.4232 300.627 61.4873 300.578 78.0189C300.578 94.6491 298.116 108.861 293.194 120.655C288.32 132.449 281.33 141.455 272.223 147.673C263.116 153.891 252.212 157 239.511 157ZM239.511 130.426C248.175 130.426 255.091 126.059 260.26 117.324C265.429 108.59 267.989 95.488 267.94 78.0189C267.94 66.5208 266.758 56.9473 264.395 49.2984C262.082 41.6495 258.784 35.9005 254.501 32.0514C250.267 28.2023 245.27 26.2777 239.511 26.2777C230.896 26.2777 224.004 30.5956 218.835 39.2315C213.666 47.8674 211.057 60.7965 211.008 78.0189C211.008 89.6649 212.165 99.3865 214.478 107.183C216.841 114.931 220.164 120.754 224.447 124.653C228.73 128.502 233.751 130.426 239.511 130.426Z" fill="#2862FF"/>
<path d="M321.087 127.021V101.78L384.222 2.07261H405.931V37.0108H393.083L353.282 100.151V101.336H443V127.021H321.087ZM393.674 153.669V119.323L394.265 108.146V2.07261H424.244V153.669H393.674Z" fill="#2862FF"/>
</mask>
<g mask="url(#mask6_21_13)">
<rect x="37" y="93.4" width="406" height="31.4" fill="#FF0000"/>
</g>
<mask id="mask7_21_13" style="mask-type:alpha" maskUnits="userSpaceOnUse" x="37" y="0" width="406" height="157">
<path d="M37 127.021V101.78L100.135 2.07261H121.844V37.0108H108.996L69.195 100.151V101.336H158.913V127.021H37ZM109.586 153.669V119.323L110.177 108.146V2.07261H140.157V153.669H109.586Z" fill="#2862FF"/>
<path d="M239.511 157C226.81 156.951 215.881 153.817 206.725 147.599C197.618 141.381 190.603 132.375 185.68 120.581C180.807 108.787 178.395 94.5997 178.444 78.0189C178.444 61.4873 180.881 47.3986 185.754 35.7525C190.677 24.1064 197.692 15.2485 206.799 9.1787C215.955 3.05957 226.859 0 239.511 0C252.162 0 263.042 3.05957 272.149 9.1787C281.305 15.2978 288.345 24.1804 293.268 35.8265C298.19 47.4232 300.627 61.4873 300.578 78.0189C300.578 94.6491 298.116 108.861 293.194 120.655C288.32 132.449 281.33 141.455 272.223 147.673C263.116 153.891 252.212 157 239.511 157ZM239.511 130.426C248.175 130.426 255.091 126.059 260.26 117.324C265.429 108.59 267.989 95.488 267.94 78.0189C267.94 66.5208 266.758 56.9473 264.395 49.2984C262.082 41.6495 258.784 35.9005 254.501 32.0514C250.267 28.2023 245.27 26.2777 239.511 26.2777C230.896 26.2777 224.004 30.5956 218.835 39.2315C213.666 47.8674 211.057 60.7965 211.008 78.0189C211.008 89.6649 212.165 99.3865 214.478 107.183C216.841 114.931 220.164 120.754 224.447 124.653C228.73 128.502 233.751 130.426 239.511 130.426Z" fill="#2862FF"/>
<path d="M321.087 127.021V101.78L384.222 2.07261H405.931V37.0108H393.083L353.282 100.151V101.336H443V127.021H321.087ZM393.674 153.669V119.323L394.265 108.146V2.07261H424.244V153.669H393.674Z" fill="#2862FF"/>
</mask>
<g mask="url(#mask7_21_13)">
<rect x="37" y="62" width="406" height="31.4" fill="#FF0000"/>
</g>
<mask id="mask8_21_13" style="mask-type:alpha" maskUnits="userSpaceOnUse" x="12" y="0" width="406" height="157">
<path d="M12 127.021V101.78L75.1346 2.07261H96.8441V37.0108H83.9956L44.195 100.151V101.336H133.913V127.021H12ZM84.5864 153.669V119.323L85.1771 108.146V2.07261H115.157V153.669H84.5864Z" fill="#2862FF"/>
<path d="M214.511 157C201.81 156.951 190.881 153.817 181.725 147.599C172.618 141.381 165.603 132.375 160.68 120.581C155.807 108.787 153.395 94.5997 153.444 78.0189C153.444 61.4873 155.881 47.3986 160.754 35.7525C165.677 24.1064 172.692 15.2485 181.799 9.1787C190.955 3.05957 201.859 0 214.511 0C227.162 0 238.042 3.05957 247.149 9.1787C256.305 15.2978 263.345 24.1804 268.268 35.8265C273.19 47.4232 275.627 61.4873 275.578 78.0189C275.578 94.6491 273.116 108.861 268.194 120.655C263.32 132.449 256.33 141.455 247.223 147.673C238.116 153.891 227.212 157 214.511 157ZM214.511 130.426C223.175 130.426 230.091 126.059 235.26 117.324C240.429 108.59 242.989 95.488 242.94 78.0189C242.94 66.5208 241.758 56.9473 239.395 49.2984C237.082 41.6495 233.784 35.9005 229.501 32.0514C225.267 28.2023 220.27 26.2777 214.511 26.2777C205.896 26.2777 199.004 30.5956 193.835 39.2315C188.666 47.8674 186.057 60.7965 186.008 78.0189C186.008 89.6649 187.165 99.3865 189.478 107.183C191.841 114.931 195.164 120.754 199.447 124.653C203.73 128.502 208.751 130.426 214.511 130.426Z" fill="#2862FF"/>
<path d="M296.087 127.021V101.78L359.222 2.07261H380.931V37.0108H368.083L328.282 100.151V101.336H418V127.021H296.087ZM368.674 153.669V119.323L369.265 108.146V2.07261H399.244V153.669H368.674Z" fill="#2862FF"/>
</mask>
<g mask="url(#mask8_21_13)">
<rect x="12" y="30.6" width="406" height="31.4" fill="#FF0000"/>
</g>
<mask id="mask9_21_13" style="mask-type:alpha" maskUnits="userSpaceOnUse" x="28" y="0" width="406" height="157">
<path d="M28 127.021V101.78L91.1346 2.07261H112.844V37.0108H99.9956L60.195 100.151V101.336H149.913V127.021H28ZM100.586 153.669V119.323L101.177 108.146V2.07261H131.157V153.669H100.586Z" fill="#2862FF"/>
<path d="M230.511 157C217.81 156.951 206.881 153.817 197.725 147.599C188.618 141.381 181.603 132.375 176.68 120.581C171.807 108.787 169.395 94.5997 169.444 78.0189C169.444 61.4873 171.881 47.3986 176.754 35.7525C181.677 24.1064 188.692 15.2485 197.799 9.1787C206.955 3.05957 217.859 0 230.511 0C243.162 0 254.042 3.05957 263.149 9.1787C272.305 15.2978 279.345 24.1804 284.268 35.8265C289.19 47.4232 291.627 61.4873 291.578 78.0189C291.578 94.6491 289.116 108.861 284.194 120.655C279.32 132.449 272.33 141.455 263.223 147.673C254.116 153.891 243.212 157 230.511 157ZM230.511 130.426C239.175 130.426 246.091 126.059 251.26 117.324C256.429 108.59 258.989 95.488 258.94 78.0189C258.94 66.5208 257.758 56.9473 255.395 49.2984C253.082 41.6495 249.784 35.9005 245.501 32.0514C241.267 28.2023 236.27 26.2777 230.511 26.2777C221.896 26.2777 215.004 30.5956 209.835 39.2315C204.666 47.8674 202.057 60.7965 202.008 78.0189C202.008 89.6649 203.165 99.3865 205.478 107.183C207.841 114.931 211.164 120.754 215.447 124.653C219.73 128.502 224.751 130.426 230.511 130.426Z" fill="#2862FF"/>
<path d="M312.087 127.021V101.78L375.222 2.07261H396.931V37.0108H384.083L344.282 100.151V101.336H434V127.021H312.087ZM384.674 153.669V119.323L385.265 108.146V2.07261H415.244V153.669H384.674Z" fill="#2862FF"/>
</mask>
<g mask="url(#mask9_21_13)">
<rect x="28" width="406" height="31.4" fill="#FF0000"/>
</g>
<mask id="mask10_21_13" style="mask-type:alpha" maskUnits="userSpaceOnUse" x="23" y="10" width="406" height="157">
<path d="M23 137.021V111.78L86.1346 12.0726H107.844V47.0108H94.9956L55.195 110.151V111.336H144.913V137.021H23ZM95.5864 163.669V129.323L96.1771 118.146V12.0726H126.157V163.669H95.5864Z" fill="#2862FF"/>
<path d="M225.511 167C212.81 166.951 201.881 163.817 192.725 157.599C183.618 151.381 176.603 142.375 171.68 130.581C166.807 118.787 164.395 104.6 164.444 88.0189C164.444 71.4873 166.881 57.3986 171.754 45.7525C176.677 34.1064 183.692 25.2485 192.799 19.1787C201.955 13.0596 212.859 10 225.511 10C238.162 10 249.042 13.0596 258.149 19.1787C267.305 25.2978 274.345 34.1804 279.268 45.8265C284.19 57.4232 286.627 71.4873 286.578 88.0189C286.578 104.649 284.116 118.861 279.194 130.655C274.32 142.449 267.33 151.455 258.223 157.673C249.116 163.891 238.212 167 225.511 167ZM225.511 140.426C234.175 140.426 241.091 136.059 246.26 127.324C251.429 118.59 253.989 105.488 253.94 88.0189C253.94 76.5208 252.758 66.9473 250.395 59.2984C248.082 51.6495 244.783 45.9005 240.501 42.0514C236.267 38.2023 231.27 36.2777 225.511 36.2777C216.896 36.2777 210.004 40.5956 204.835 49.2315C199.666 57.8674 197.057 70.7965 197.008 88.0189C197.008 99.6649 198.165 109.386 200.478 117.183C202.841 124.931 206.164 130.754 210.447 134.653C214.73 138.502 219.751 140.426 225.511 140.426Z" fill="#2862FF"/>
<path d="M307.087 137.021V111.78L370.222 12.0726H391.931V47.0108H379.083L339.282 110.151V111.336H429V137.021H307.087ZM379.674 163.669V129.323L380.264 118.146V12.0726H410.244V163.669H379.674Z" fill="#2862FF"/>
</mask>
<g mask="url(#mask10_21_13)">
<rect x="23" y="134.6" width="406" height="32.4" fill="black"/>
</g>
<mask id="mask11_21_13" style="mask-type:alpha" maskUnits="userSpaceOnUse" x="23" y="0" width="406" height="157">
<path d="M23 127.021V101.78L86.1346 2.07261H107.844V37.0108H94.9956L55.195 100.151V101.336H144.913V127.021H23ZM95.5864 153.669V119.323L96.1771 108.146V2.07261H126.157V153.669H95.5864Z" fill="#2862FF"/>
<path d="M225.511 157C212.81 156.951 201.881 153.817 192.725 147.599C183.618 141.381 176.603 132.375 171.68 120.581C166.807 108.787 164.395 94.5997 164.444 78.0189C164.444 61.4873 166.881 47.3986 171.754 35.7525C176.677 24.1064 183.692 15.2485 192.799 9.1787C201.955 3.05957 212.859 0 225.511 0C238.162 0 249.042 3.05957 258.149 9.1787C267.305 15.2978 274.345 24.1804 279.268 35.8265C284.19 47.4232 286.627 61.4873 286.578 78.0189C286.578 94.6491 284.116 108.861 279.194 120.655C274.32 132.449 267.33 141.455 258.223 147.673C249.116 153.891 238.212 157 225.511 157ZM225.511 130.426C234.175 130.426 241.091 126.059 246.26 117.324C251.429 108.59 253.989 95.488 253.94 78.0189C253.94 66.5208 252.758 56.9473 250.395 49.2984C248.082 41.6495 244.784 35.9005 240.501 32.0514C236.267 28.2023 231.27 26.2777 225.511 26.2777C216.896 26.2777 210.004 30.5956 204.835 39.2315C199.666 47.8674 197.057 60.7965 197.008 78.0189C197.008 89.6649 198.165 99.3865 200.478 107.183C202.841 114.931 206.164 120.754 210.447 124.653C214.73 128.502 219.751 130.426 225.511 130.426Z" fill="#2862FF"/>
<path d="M307.087 127.021V101.78L370.222 2.07261H391.931V37.0108H379.083L339.282 100.151V101.336H429V127.021H307.087ZM379.674 153.669V119.323L380.265 108.146V2.07261H410.244V153.669H379.674Z" fill="#2862FF"/>
</mask>
<g mask="url(#mask11_21_13)">
<rect x="23" y="93.4" width="406" height="31.4" fill="black"/>
</g>
<mask id="mask12_21_13" style="mask-type:alpha" maskUnits="userSpaceOnUse" x="39" y="0" width="406" height="157">
<path d="M39 127.021V101.78L102.135 2.07261H123.844V37.0108H110.996L71.195 100.151V101.336H160.913V127.021H39ZM111.586 153.669V119.323L112.177 108.146V2.07261H142.157V153.669H111.586Z" fill="#2862FF"/>
<path d="M241.511 157C228.81 156.951 217.881 153.817 208.725 147.599C199.618 141.381 192.603 132.375 187.68 120.581C182.807 108.787 180.395 94.5997 180.444 78.0189C180.444 61.4873 182.881 47.3986 187.754 35.7525C192.677 24.1064 199.692 15.2485 208.799 9.1787C217.955 3.05957 228.859 0 241.511 0C254.162 0 265.042 3.05957 274.149 9.1787C283.305 15.2978 290.345 24.1804 295.268 35.8265C300.19 47.4232 302.627 61.4873 302.578 78.0189C302.578 94.6491 300.116 108.861 295.194 120.655C290.32 132.449 283.33 141.455 274.223 147.673C265.116 153.891 254.212 157 241.511 157ZM241.511 130.426C250.175 130.426 257.091 126.059 262.26 117.324C267.429 108.59 269.989 95.488 269.94 78.0189C269.94 66.5208 268.758 56.9473 266.395 49.2984C264.082 41.6495 260.784 35.9005 256.501 32.0514C252.267 28.2023 247.27 26.2777 241.511 26.2777C232.896 26.2777 226.004 30.5956 220.835 39.2315C215.666 47.8674 213.057 60.7965 213.008 78.0189C213.008 89.6649 214.165 99.3865 216.478 107.183C218.841 114.931 222.164 120.754 226.447 124.653C230.73 128.502 235.751 130.426 241.511 130.426Z" fill="#2862FF"/>
<path d="M323.087 127.021V101.78L386.222 2.07261H407.931V37.0108H395.083L355.282 100.151V101.336H445V127.021H323.087ZM395.674 153.669V119.323L396.265 108.146V2.07261H426.244V153.669H395.674Z" fill="#2862FF"/>
</mask>
<g mask="url(#mask12_21_13)">
<rect x="39" y="62" width="406" height="31.4" fill="black"/>
</g>
<mask id="mask13_21_13" style="mask-type:alpha" maskUnits="userSpaceOnUse" x="6" y="0" width="406" height="157">
<path d="M6 127.021V101.78L69.1346 2.07261H90.8441V37.0108H77.9956L38.195 100.151V101.336H127.913V127.021H6ZM78.5864 153.669V119.323L79.1771 108.146V2.07261H109.157V153.669H78.5864Z" fill="#2862FF"/>
<path d="M208.511 157C195.81 156.951 184.881 153.817 175.725 147.599C166.618 141.381 159.603 132.375 154.68 120.581C149.807 108.787 147.395 94.5997 147.444 78.0189C147.444 61.4873 149.881 47.3986 154.754 35.7525C159.677 24.1064 166.692 15.2485 175.799 9.1787C184.955 3.05957 195.859 0 208.511 0C221.162 0 232.042 3.05957 241.149 9.1787C250.305 15.2978 257.345 24.1804 262.268 35.8265C267.19 47.4232 269.627 61.4873 269.578 78.0189C269.578 94.6491 267.116 108.861 262.194 120.655C257.32 132.449 250.33 141.455 241.223 147.673C232.116 153.891 221.212 157 208.511 157ZM208.511 130.426C217.175 130.426 224.091 126.059 229.26 117.324C234.429 108.59 236.989 95.488 236.94 78.0189C236.94 66.5208 235.758 56.9473 233.395 49.2984C231.082 41.6495 227.784 35.9005 223.501 32.0514C219.267 28.2023 214.27 26.2777 208.511 26.2777C199.896 26.2777 193.004 30.5956 187.835 39.2315C182.666 47.8674 180.057 60.7965 180.008 78.0189C180.008 89.6649 181.165 99.3865 183.478 107.183C185.841 114.931 189.164 120.754 193.447 124.653C197.73 128.502 202.751 130.426 208.511 130.426Z" fill="#2862FF"/>
<path d="M290.087 127.021V101.78L353.222 2.07261H374.931V37.0108H362.083L322.282 100.151V101.336H412V127.021H290.087ZM362.674 153.669V119.323L363.265 108.146V2.07261H393.244V153.669H362.674Z" fill="#2862FF"/>
</mask>
<g mask="url(#mask13_21_13)">
<rect x="6" y="30.6" width="406" height="31.4" fill="black"/>
</g>
<mask id="mask14_21_13" style="mask-type:alpha" maskUnits="userSpaceOnUse" x="33" y="0" width="406" height="157">
<path d="M33 127.021V101.78L96.1346 2.07261H117.844V37.0108H104.996L65.195 100.151V101.336H154.913V127.021H33ZM105.586 153.669V119.323L106.177 108.146V2.07261H136.157V153.669H105.586Z" fill="#2862FF"/>
<path d="M235.511 157C222.81 156.951 211.881 153.817 202.725 147.599C193.618 141.381 186.603 132.375 181.68 120.581C176.807 108.787 174.395 94.5997 174.444 78.0189C174.444 61.4873 176.881 47.3986 181.754 35.7525C186.677 24.1064 193.692 15.2485 202.799 9.1787C211.955 3.05957 222.859 0 235.511 0C248.162 0 259.042 3.05957 268.149 9.1787C277.305 15.2978 284.345 24.1804 289.268 35.8265C294.19 47.4232 296.627 61.4873 296.578 78.0189C296.578 94.6491 294.116 108.861 289.194 120.655C284.32 132.449 277.33 141.455 268.223 147.673C259.116 153.891 248.212 157 235.511 157ZM235.511 130.426C244.175 130.426 251.091 126.059 256.26 117.324C261.429 108.59 263.989 95.488 263.94 78.0189C263.94 66.5208 262.758 56.9473 260.395 49.2984C258.082 41.6495 254.784 35.9005 250.501 32.0514C246.267 28.2023 241.27 26.2777 235.511 26.2777C226.896 26.2777 220.004 30.5956 214.835 39.2315C209.666 47.8674 207.057 60.7965 207.008 78.0189C207.008 89.6649 208.165 99.3865 210.478 107.183C212.841 114.931 216.164 120.754 220.447 124.653C224.73 128.502 229.751 130.426 235.511 130.426Z" fill="#2862FF"/>
<path d="M317.087 127.021V101.78L380.222 2.07261H401.931V37.0108H389.083L349.282 100.151V101.336H439V127.021H317.087ZM389.674 153.669V119.323L390.265 108.146V2.07261H420.244V153.669H389.674Z" fill="#2862FF"/>
</mask>
<g mask="url(#mask14_21_13)">
<rect x="33" width="406" height="31.4" fill="black"/>
</g>
</svg>
