<svg width="410" height="157" viewBox="0 0 410 157" fill="none" xmlns="http://www.w3.org/2000/svg">
<mask id="mask0_21_9" style="mask-type:alpha" maskUnits="userSpaceOnUse" x="0" y="0" width="406" height="157">
<path d="M0 127.021V101.78L63.1346 2.07261H84.8441V37.0108H71.9956L32.195 100.151V101.336H121.913V127.021H0ZM72.5864 153.669V119.323L73.1771 108.146V2.07261H103.157V153.669H72.5864Z" fill="#2862FF"/>
<path d="M202.511 157C189.81 156.951 178.881 153.817 169.725 147.599C160.618 141.381 153.603 132.375 148.68 120.581C143.807 108.787 141.395 94.5997 141.444 78.0189C141.444 61.4873 143.881 47.3986 148.754 35.7525C153.677 24.1064 160.692 15.2485 169.799 9.1787C178.955 3.05957 189.859 0 202.511 0C215.162 0 226.042 3.05957 235.149 9.1787C244.305 15.2978 251.345 24.1804 256.268 35.8265C261.19 47.4232 263.627 61.4873 263.578 78.0189C263.578 94.6491 261.116 108.861 256.194 120.655C251.32 132.449 244.33 141.455 235.223 147.673C226.116 153.891 215.212 157 202.511 157ZM202.511 130.426C211.175 130.426 218.091 126.059 223.26 117.324C228.429 108.59 230.989 95.488 230.94 78.0189C230.94 66.5208 229.758 56.9473 227.395 49.2984C225.082 41.6495 221.783 35.9005 217.501 32.0514C213.267 28.2023 208.27 26.2777 202.511 26.2777C193.896 26.2777 187.004 30.5956 181.835 39.2315C176.666 47.8674 174.057 60.7965 174.008 78.0189C174.008 89.6649 175.165 99.3865 177.478 107.183C179.841 114.931 183.164 120.754 187.447 124.653C191.73 128.502 196.751 130.426 202.511 130.426Z" fill="#2862FF"/>
<path d="M284.087 127.021V101.78L347.222 2.07261H368.931V37.0108H356.083L316.282 100.151V101.336H406V127.021H284.087ZM356.674 153.669V119.323L357.264 108.146V2.07261H387.244V153.669H356.674Z" fill="#2862FF"/>
</mask>
<g mask="url(#mask0_21_9)">
<rect y="124.6" width="406" height="32.4" fill="#56EBFF"/>
</g>
<mask id="mask1_21_9" style="mask-type:alpha" maskUnits="userSpaceOnUse" x="0" y="0" width="406" height="157">
<path d="M0 127.021V101.78L63.1346 2.07261H84.8441V37.0108H71.9956L32.195 100.151V101.336H121.913V127.021H0ZM72.5864 153.669V119.323L73.1771 108.146V2.07261H103.157V153.669H72.5864Z" fill="#2862FF"/>
<path d="M202.511 157C189.81 156.951 178.881 153.817 169.725 147.599C160.618 141.381 153.603 132.375 148.68 120.581C143.807 108.787 141.395 94.5997 141.444 78.0189C141.444 61.4873 143.881 47.3986 148.754 35.7525C153.677 24.1064 160.692 15.2485 169.799 9.1787C178.955 3.05957 189.859 0 202.511 0C215.162 0 226.042 3.05957 235.149 9.1787C244.305 15.2978 251.345 24.1804 256.268 35.8265C261.19 47.4232 263.627 61.4873 263.578 78.0189C263.578 94.6491 261.116 108.861 256.194 120.655C251.32 132.449 244.33 141.455 235.223 147.673C226.116 153.891 215.212 157 202.511 157ZM202.511 130.426C211.175 130.426 218.091 126.059 223.26 117.324C228.429 108.59 230.989 95.488 230.94 78.0189C230.94 66.5208 229.758 56.9473 227.395 49.2984C225.082 41.6495 221.784 35.9005 217.501 32.0514C213.267 28.2023 208.27 26.2777 202.511 26.2777C193.896 26.2777 187.004 30.5956 181.835 39.2315C176.666 47.8674 174.057 60.7965 174.008 78.0189C174.008 89.6649 175.165 99.3865 177.478 107.183C179.841 114.931 183.164 120.754 187.447 124.653C191.73 128.502 196.751 130.426 202.511 130.426Z" fill="#2862FF"/>
<path d="M284.087 127.021V101.78L347.222 2.07261H368.931V37.0108H356.083L316.282 100.151V101.336H406V127.021H284.087ZM356.674 153.669V119.323L357.265 108.146V2.07261H387.244V153.669H356.674Z" fill="#2862FF"/>
</mask>
<g mask="url(#mask1_21_9)">
<rect y="93.4" width="406" height="31.4" fill="#56EBFF"/>
</g>
<mask id="mask2_21_9" style="mask-type:alpha" maskUnits="userSpaceOnUse" x="0" y="0" width="406" height="157">
<path d="M0 127.021V101.78L63.1346 2.07261H84.8441V37.0108H71.9956L32.195 100.151V101.336H121.913V127.021H0ZM72.5864 153.669V119.323L73.1771 108.146V2.07261H103.157V153.669H72.5864Z" fill="#2862FF"/>
<path d="M202.511 157C189.81 156.951 178.881 153.817 169.725 147.599C160.618 141.381 153.603 132.375 148.68 120.581C143.807 108.787 141.395 94.5997 141.444 78.0189C141.444 61.4873 143.881 47.3986 148.754 35.7525C153.677 24.1064 160.692 15.2485 169.799 9.1787C178.955 3.05957 189.859 0 202.511 0C215.162 0 226.042 3.05957 235.149 9.1787C244.305 15.2978 251.345 24.1804 256.268 35.8265C261.19 47.4232 263.627 61.4873 263.578 78.0189C263.578 94.6491 261.116 108.861 256.194 120.655C251.32 132.449 244.33 141.455 235.223 147.673C226.116 153.891 215.212 157 202.511 157ZM202.511 130.426C211.175 130.426 218.091 126.059 223.26 117.324C228.429 108.59 230.989 95.488 230.94 78.0189C230.94 66.5208 229.758 56.9473 227.395 49.2984C225.082 41.6495 221.784 35.9005 217.501 32.0514C213.267 28.2023 208.27 26.2777 202.511 26.2777C193.896 26.2777 187.004 30.5956 181.835 39.2315C176.666 47.8674 174.057 60.7965 174.008 78.0189C174.008 89.6649 175.165 99.3865 177.478 107.183C179.841 114.931 183.164 120.754 187.447 124.653C191.73 128.502 196.751 130.426 202.511 130.426Z" fill="#2862FF"/>
<path d="M284.087 127.021V101.78L347.222 2.07261H368.931V37.0108H356.083L316.282 100.151V101.336H406V127.021H284.087ZM356.674 153.669V119.323L357.265 108.146V2.07261H387.244V153.669H356.674Z" fill="#2862FF"/>
</mask>
<g mask="url(#mask2_21_9)">
<rect y="62" width="406" height="31.4" fill="#56EBFF"/>
</g>
<mask id="mask3_21_9" style="mask-type:alpha" maskUnits="userSpaceOnUse" x="0" y="0" width="406" height="157">
<path d="M0 127.021V101.78L63.1346 2.07261H84.8441V37.0108H71.9956L32.195 100.151V101.336H121.913V127.021H0ZM72.5864 153.669V119.323L73.1771 108.146V2.07261H103.157V153.669H72.5864Z" fill="#2862FF"/>
<path d="M202.511 157C189.81 156.951 178.881 153.817 169.725 147.599C160.618 141.381 153.603 132.375 148.68 120.581C143.807 108.787 141.395 94.5997 141.444 78.0189C141.444 61.4873 143.881 47.3986 148.754 35.7525C153.677 24.1064 160.692 15.2485 169.799 9.1787C178.955 3.05957 189.859 0 202.511 0C215.162 0 226.042 3.05957 235.149 9.1787C244.305 15.2978 251.345 24.1804 256.268 35.8265C261.19 47.4232 263.627 61.4873 263.578 78.0189C263.578 94.6491 261.116 108.861 256.194 120.655C251.32 132.449 244.33 141.455 235.223 147.673C226.116 153.891 215.212 157 202.511 157ZM202.511 130.426C211.175 130.426 218.091 126.059 223.26 117.324C228.429 108.59 230.989 95.488 230.94 78.0189C230.94 66.5208 229.758 56.9473 227.395 49.2984C225.082 41.6495 221.784 35.9005 217.501 32.0514C213.267 28.2023 208.27 26.2777 202.511 26.2777C193.896 26.2777 187.004 30.5956 181.835 39.2315C176.666 47.8674 174.057 60.7965 174.008 78.0189C174.008 89.6649 175.165 99.3865 177.478 107.183C179.841 114.931 183.164 120.754 187.447 124.653C191.73 128.502 196.751 130.426 202.511 130.426Z" fill="#2862FF"/>
<path d="M284.087 127.021V101.78L347.222 2.07261H368.931V37.0108H356.083L316.282 100.151V101.336H406V127.021H284.087ZM356.674 153.669V119.323L357.265 108.146V2.07261H387.244V153.669H356.674Z" fill="#2862FF"/>
</mask>
<g mask="url(#mask3_21_9)">
<rect y="30.6" width="406" height="31.4" fill="#56EBFF"/>
</g>
<mask id="mask4_21_9" style="mask-type:alpha" maskUnits="userSpaceOnUse" x="0" y="0" width="406" height="157">
<path d="M0 127.021V101.78L63.1346 2.07261H84.8441V37.0108H71.9956L32.195 100.151V101.336H121.913V127.021H0ZM72.5864 153.669V119.323L73.1771 108.146V2.07261H103.157V153.669H72.5864Z" fill="#2862FF"/>
<path d="M202.511 157C189.81 156.951 178.881 153.817 169.725 147.599C160.618 141.381 153.603 132.375 148.68 120.581C143.807 108.787 141.395 94.5997 141.444 78.0189C141.444 61.4873 143.881 47.3986 148.754 35.7525C153.677 24.1064 160.692 15.2485 169.799 9.1787C178.955 3.05957 189.859 0 202.511 0C215.162 0 226.042 3.05957 235.149 9.1787C244.305 15.2978 251.345 24.1804 256.268 35.8265C261.19 47.4232 263.627 61.4873 263.578 78.0189C263.578 94.6491 261.116 108.861 256.194 120.655C251.32 132.449 244.33 141.455 235.223 147.673C226.116 153.891 215.212 157 202.511 157ZM202.511 130.426C211.175 130.426 218.091 126.059 223.26 117.324C228.429 108.59 230.989 95.488 230.94 78.0189C230.94 66.5208 229.758 56.9473 227.395 49.2984C225.082 41.6495 221.784 35.9005 217.501 32.0514C213.267 28.2023 208.27 26.2777 202.511 26.2777C193.896 26.2777 187.004 30.5956 181.835 39.2315C176.666 47.8674 174.057 60.7965 174.008 78.0189C174.008 89.6649 175.165 99.3865 177.478 107.183C179.841 114.931 183.164 120.754 187.447 124.653C191.73 128.502 196.751 130.426 202.511 130.426Z" fill="#2862FF"/>
<path d="M284.087 127.021V101.78L347.222 2.07261H368.931V37.0108H356.083L316.282 100.151V101.336H406V127.021H284.087ZM356.674 153.669V119.323L357.265 108.146V2.07261H387.244V153.669H356.674Z" fill="#2862FF"/>
</mask>
<g mask="url(#mask4_21_9)">
<rect width="406" height="31.4" fill="#56EBFF"/>
</g>
<mask id="mask5_21_9" style="mask-type:alpha" maskUnits="userSpaceOnUse" x="4" y="0" width="406" height="157">
<path d="M4 127.021V101.78L67.1346 2.07261H88.8441V37.0108H75.9956L36.195 100.151V101.336H125.913V127.021H4ZM76.5864 153.669V119.323L77.1771 108.146V2.07261H107.157V153.669H76.5864Z" fill="#2862FF"/>
<path d="M206.511 157C193.81 156.951 182.881 153.817 173.725 147.599C164.618 141.381 157.603 132.375 152.68 120.581C147.807 108.787 145.395 94.5997 145.444 78.0189C145.444 61.4873 147.881 47.3986 152.754 35.7525C157.677 24.1064 164.692 15.2485 173.799 9.1787C182.955 3.05957 193.859 0 206.511 0C219.162 0 230.042 3.05957 239.149 9.1787C248.305 15.2978 255.345 24.1804 260.268 35.8265C265.19 47.4232 267.627 61.4873 267.578 78.0189C267.578 94.6491 265.116 108.861 260.194 120.655C255.32 132.449 248.33 141.455 239.223 147.673C230.116 153.891 219.212 157 206.511 157ZM206.511 130.426C215.175 130.426 222.091 126.059 227.26 117.324C232.429 108.59 234.989 95.488 234.94 78.0189C234.94 66.5208 233.758 56.9473 231.395 49.2984C229.082 41.6495 225.783 35.9005 221.501 32.0514C217.267 28.2023 212.27 26.2777 206.511 26.2777C197.896 26.2777 191.004 30.5956 185.835 39.2315C180.666 47.8674 178.057 60.7965 178.008 78.0189C178.008 89.6649 179.165 99.3865 181.478 107.183C183.841 114.931 187.164 120.754 191.447 124.653C195.73 128.502 200.751 130.426 206.511 130.426Z" fill="#2862FF"/>
<path d="M288.087 127.021V101.78L351.222 2.07261H372.931V37.0108H360.083L320.282 100.151V101.336H410V127.021H288.087ZM360.674 153.669V119.323L361.264 108.146V2.07261H391.244V153.669H360.674Z" fill="#2862FF"/>
</mask>
<g mask="url(#mask5_21_9)">
<rect x="4" y="124.6" width="406" height="32.4" fill="#FF0000"/>
</g>
<mask id="mask6_21_9" style="mask-type:alpha" maskUnits="userSpaceOnUse" x="4" y="0" width="406" height="157">
<path d="M4 127.021V101.78L67.1346 2.07261H88.8441V37.0108H75.9956L36.195 100.151V101.336H125.913V127.021H4ZM76.5864 153.669V119.323L77.1771 108.146V2.07261H107.157V153.669H76.5864Z" fill="#2862FF"/>
<path d="M206.511 157C193.81 156.951 182.881 153.817 173.725 147.599C164.618 141.381 157.603 132.375 152.68 120.581C147.807 108.787 145.395 94.5997 145.444 78.0189C145.444 61.4873 147.881 47.3986 152.754 35.7525C157.677 24.1064 164.692 15.2485 173.799 9.1787C182.955 3.05957 193.859 0 206.511 0C219.162 0 230.042 3.05957 239.149 9.1787C248.305 15.2978 255.345 24.1804 260.268 35.8265C265.19 47.4232 267.627 61.4873 267.578 78.0189C267.578 94.6491 265.116 108.861 260.194 120.655C255.32 132.449 248.33 141.455 239.223 147.673C230.116 153.891 219.212 157 206.511 157ZM206.511 130.426C215.175 130.426 222.091 126.059 227.26 117.324C232.429 108.59 234.989 95.488 234.94 78.0189C234.94 66.5208 233.758 56.9473 231.395 49.2984C229.082 41.6495 225.784 35.9005 221.501 32.0514C217.267 28.2023 212.27 26.2777 206.511 26.2777C197.896 26.2777 191.004 30.5956 185.835 39.2315C180.666 47.8674 178.057 60.7965 178.008 78.0189C178.008 89.6649 179.165 99.3865 181.478 107.183C183.841 114.931 187.164 120.754 191.447 124.653C195.73 128.502 200.751 130.426 206.511 130.426Z" fill="#2862FF"/>
<path d="M288.087 127.021V101.78L351.222 2.07261H372.931V37.0108H360.083L320.282 100.151V101.336H410V127.021H288.087ZM360.674 153.669V119.323L361.265 108.146V2.07261H391.244V153.669H360.674Z" fill="#2862FF"/>
</mask>
<g mask="url(#mask6_21_9)">
<rect x="4" y="93.4" width="406" height="31.4" fill="#FF0000"/>
</g>
<mask id="mask7_21_9" style="mask-type:alpha" maskUnits="userSpaceOnUse" x="4" y="0" width="406" height="157">
<path d="M4 127.021V101.78L67.1346 2.07261H88.8441V37.0108H75.9956L36.195 100.151V101.336H125.913V127.021H4ZM76.5864 153.669V119.323L77.1771 108.146V2.07261H107.157V153.669H76.5864Z" fill="#2862FF"/>
<path d="M206.511 157C193.81 156.951 182.881 153.817 173.725 147.599C164.618 141.381 157.603 132.375 152.68 120.581C147.807 108.787 145.395 94.5997 145.444 78.0189C145.444 61.4873 147.881 47.3986 152.754 35.7525C157.677 24.1064 164.692 15.2485 173.799 9.1787C182.955 3.05957 193.859 0 206.511 0C219.162 0 230.042 3.05957 239.149 9.1787C248.305 15.2978 255.345 24.1804 260.268 35.8265C265.19 47.4232 267.627 61.4873 267.578 78.0189C267.578 94.6491 265.116 108.861 260.194 120.655C255.32 132.449 248.33 141.455 239.223 147.673C230.116 153.891 219.212 157 206.511 157ZM206.511 130.426C215.175 130.426 222.091 126.059 227.26 117.324C232.429 108.59 234.989 95.488 234.94 78.0189C234.94 66.5208 233.758 56.9473 231.395 49.2984C229.082 41.6495 225.784 35.9005 221.501 32.0514C217.267 28.2023 212.27 26.2777 206.511 26.2777C197.896 26.2777 191.004 30.5956 185.835 39.2315C180.666 47.8674 178.057 60.7965 178.008 78.0189C178.008 89.6649 179.165 99.3865 181.478 107.183C183.841 114.931 187.164 120.754 191.447 124.653C195.73 128.502 200.751 130.426 206.511 130.426Z" fill="#2862FF"/>
<path d="M288.087 127.021V101.78L351.222 2.07261H372.931V37.0108H360.083L320.282 100.151V101.336H410V127.021H288.087ZM360.674 153.669V119.323L361.265 108.146V2.07261H391.244V153.669H360.674Z" fill="#2862FF"/>
</mask>
<g mask="url(#mask7_21_9)">
<rect x="4" y="62" width="406" height="31.4" fill="#FF0000"/>
</g>
<mask id="mask8_21_9" style="mask-type:alpha" maskUnits="userSpaceOnUse" x="4" y="0" width="406" height="157">
<path d="M4 127.021V101.78L67.1346 2.07261H88.8441V37.0108H75.9956L36.195 100.151V101.336H125.913V127.021H4ZM76.5864 153.669V119.323L77.1771 108.146V2.07261H107.157V153.669H76.5864Z" fill="#2862FF"/>
<path d="M206.511 157C193.81 156.951 182.881 153.817 173.725 147.599C164.618 141.381 157.603 132.375 152.68 120.581C147.807 108.787 145.395 94.5997 145.444 78.0189C145.444 61.4873 147.881 47.3986 152.754 35.7525C157.677 24.1064 164.692 15.2485 173.799 9.1787C182.955 3.05957 193.859 0 206.511 0C219.162 0 230.042 3.05957 239.149 9.1787C248.305 15.2978 255.345 24.1804 260.268 35.8265C265.19 47.4232 267.627 61.4873 267.578 78.0189C267.578 94.6491 265.116 108.861 260.194 120.655C255.32 132.449 248.33 141.455 239.223 147.673C230.116 153.891 219.212 157 206.511 157ZM206.511 130.426C215.175 130.426 222.091 126.059 227.26 117.324C232.429 108.59 234.989 95.488 234.94 78.0189C234.94 66.5208 233.758 56.9473 231.395 49.2984C229.082 41.6495 225.784 35.9005 221.501 32.0514C217.267 28.2023 212.27 26.2777 206.511 26.2777C197.896 26.2777 191.004 30.5956 185.835 39.2315C180.666 47.8674 178.057 60.7965 178.008 78.0189C178.008 89.6649 179.165 99.3865 181.478 107.183C183.841 114.931 187.164 120.754 191.447 124.653C195.73 128.502 200.751 130.426 206.511 130.426Z" fill="#2862FF"/>
<path d="M288.087 127.021V101.78L351.222 2.07261H372.931V37.0108H360.083L320.282 100.151V101.336H410V127.021H288.087ZM360.674 153.669V119.323L361.265 108.146V2.07261H391.244V153.669H360.674Z" fill="#2862FF"/>
</mask>
<g mask="url(#mask8_21_9)">
<rect x="4" y="30.6" width="406" height="31.4" fill="#FF0000"/>
</g>
<mask id="mask9_21_9" style="mask-type:alpha" maskUnits="userSpaceOnUse" x="4" y="0" width="406" height="157">
<path d="M4 127.021V101.78L67.1346 2.07261H88.8441V37.0108H75.9956L36.195 100.151V101.336H125.913V127.021H4ZM76.5864 153.669V119.323L77.1771 108.146V2.07261H107.157V153.669H76.5864Z" fill="#2862FF"/>
<path d="M206.511 157C193.81 156.951 182.881 153.817 173.725 147.599C164.618 141.381 157.603 132.375 152.68 120.581C147.807 108.787 145.395 94.5997 145.444 78.0189C145.444 61.4873 147.881 47.3986 152.754 35.7525C157.677 24.1064 164.692 15.2485 173.799 9.1787C182.955 3.05957 193.859 0 206.511 0C219.162 0 230.042 3.05957 239.149 9.1787C248.305 15.2978 255.345 24.1804 260.268 35.8265C265.19 47.4232 267.627 61.4873 267.578 78.0189C267.578 94.6491 265.116 108.861 260.194 120.655C255.32 132.449 248.33 141.455 239.223 147.673C230.116 153.891 219.212 157 206.511 157ZM206.511 130.426C215.175 130.426 222.091 126.059 227.26 117.324C232.429 108.59 234.989 95.488 234.94 78.0189C234.94 66.5208 233.758 56.9473 231.395 49.2984C229.082 41.6495 225.784 35.9005 221.501 32.0514C217.267 28.2023 212.27 26.2777 206.511 26.2777C197.896 26.2777 191.004 30.5956 185.835 39.2315C180.666 47.8674 178.057 60.7965 178.008 78.0189C178.008 89.6649 179.165 99.3865 181.478 107.183C183.841 114.931 187.164 120.754 191.447 124.653C195.73 128.502 200.751 130.426 206.511 130.426Z" fill="#2862FF"/>
<path d="M288.087 127.021V101.78L351.222 2.07261H372.931V37.0108H360.083L320.282 100.151V101.336H410V127.021H288.087ZM360.674 153.669V119.323L361.265 108.146V2.07261H391.244V153.669H360.674Z" fill="#2862FF"/>
</mask>
<g mask="url(#mask9_21_9)">
<rect x="4" width="406" height="31.4" fill="#FF0000"/>
</g>
<mask id="mask10_21_9" style="mask-type:alpha" maskUnits="userSpaceOnUse" x="2" y="0" width="406" height="157">
<path d="M2 127.021V101.78L65.1346 2.07261H86.8441V37.0108H73.9956L34.195 100.151V101.336H123.913V127.021H2ZM74.5864 153.669V119.323L75.1771 108.146V2.07261H105.157V153.669H74.5864Z" fill="#2862FF"/>
<path d="M204.511 157C191.81 156.951 180.881 153.817 171.725 147.599C162.618 141.381 155.603 132.375 150.68 120.581C145.807 108.787 143.395 94.5997 143.444 78.0189C143.444 61.4873 145.881 47.3986 150.754 35.7525C155.677 24.1064 162.692 15.2485 171.799 9.1787C180.955 3.05957 191.859 0 204.511 0C217.162 0 228.042 3.05957 237.149 9.1787C246.305 15.2978 253.345 24.1804 258.268 35.8265C263.19 47.4232 265.627 61.4873 265.578 78.0189C265.578 94.6491 263.116 108.861 258.194 120.655C253.32 132.449 246.33 141.455 237.223 147.673C228.116 153.891 217.212 157 204.511 157ZM204.511 130.426C213.175 130.426 220.091 126.059 225.26 117.324C230.429 108.59 232.989 95.488 232.94 78.0189C232.94 66.5208 231.758 56.9473 229.395 49.2984C227.082 41.6495 223.783 35.9005 219.501 32.0514C215.267 28.2023 210.27 26.2777 204.511 26.2777C195.896 26.2777 189.004 30.5956 183.835 39.2315C178.666 47.8674 176.057 60.7965 176.008 78.0189C176.008 89.6649 177.165 99.3865 179.478 107.183C181.841 114.931 185.164 120.754 189.447 124.653C193.73 128.502 198.751 130.426 204.511 130.426Z" fill="#2862FF"/>
<path d="M286.087 127.021V101.78L349.222 2.07261H370.931V37.0108H358.083L318.282 100.151V101.336H408V127.021H286.087ZM358.674 153.669V119.323L359.264 108.146V2.07261H389.244V153.669H358.674Z" fill="#2862FF"/>
</mask>
<g mask="url(#mask10_21_9)">
<rect x="2" y="124.6" width="406" height="32.4" fill="black"/>
</g>
<mask id="mask11_21_9" style="mask-type:alpha" maskUnits="userSpaceOnUse" x="2" y="0" width="406" height="157">
<path d="M2 127.021V101.78L65.1346 2.07261H86.8441V37.0108H73.9956L34.195 100.151V101.336H123.913V127.021H2ZM74.5864 153.669V119.323L75.1771 108.146V2.07261H105.157V153.669H74.5864Z" fill="#2862FF"/>
<path d="M204.511 157C191.81 156.951 180.881 153.817 171.725 147.599C162.618 141.381 155.603 132.375 150.68 120.581C145.807 108.787 143.395 94.5997 143.444 78.0189C143.444 61.4873 145.881 47.3986 150.754 35.7525C155.677 24.1064 162.692 15.2485 171.799 9.1787C180.955 3.05957 191.859 0 204.511 0C217.162 0 228.042 3.05957 237.149 9.1787C246.305 15.2978 253.345 24.1804 258.268 35.8265C263.19 47.4232 265.627 61.4873 265.578 78.0189C265.578 94.6491 263.116 108.861 258.194 120.655C253.32 132.449 246.33 141.455 237.223 147.673C228.116 153.891 217.212 157 204.511 157ZM204.511 130.426C213.175 130.426 220.091 126.059 225.26 117.324C230.429 108.59 232.989 95.488 232.94 78.0189C232.94 66.5208 231.758 56.9473 229.395 49.2984C227.082 41.6495 223.784 35.9005 219.501 32.0514C215.267 28.2023 210.27 26.2777 204.511 26.2777C195.896 26.2777 189.004 30.5956 183.835 39.2315C178.666 47.8674 176.057 60.7965 176.008 78.0189C176.008 89.6649 177.165 99.3865 179.478 107.183C181.841 114.931 185.164 120.754 189.447 124.653C193.73 128.502 198.751 130.426 204.511 130.426Z" fill="#2862FF"/>
<path d="M286.087 127.021V101.78L349.222 2.07261H370.931V37.0108H358.083L318.282 100.151V101.336H408V127.021H286.087ZM358.674 153.669V119.323L359.265 108.146V2.07261H389.244V153.669H358.674Z" fill="#2862FF"/>
</mask>
<g mask="url(#mask11_21_9)">
<rect x="2" y="93.4" width="406" height="31.4" fill="black"/>
</g>
<mask id="mask12_21_9" style="mask-type:alpha" maskUnits="userSpaceOnUse" x="2" y="0" width="406" height="157">
<path d="M2 127.021V101.78L65.1346 2.07261H86.8441V37.0108H73.9956L34.195 100.151V101.336H123.913V127.021H2ZM74.5864 153.669V119.323L75.1771 108.146V2.07261H105.157V153.669H74.5864Z" fill="#2862FF"/>
<path d="M204.511 157C191.81 156.951 180.881 153.817 171.725 147.599C162.618 141.381 155.603 132.375 150.68 120.581C145.807 108.787 143.395 94.5997 143.444 78.0189C143.444 61.4873 145.881 47.3986 150.754 35.7525C155.677 24.1064 162.692 15.2485 171.799 9.1787C180.955 3.05957 191.859 0 204.511 0C217.162 0 228.042 3.05957 237.149 9.1787C246.305 15.2978 253.345 24.1804 258.268 35.8265C263.19 47.4232 265.627 61.4873 265.578 78.0189C265.578 94.6491 263.116 108.861 258.194 120.655C253.32 132.449 246.33 141.455 237.223 147.673C228.116 153.891 217.212 157 204.511 157ZM204.511 130.426C213.175 130.426 220.091 126.059 225.26 117.324C230.429 108.59 232.989 95.488 232.94 78.0189C232.94 66.5208 231.758 56.9473 229.395 49.2984C227.082 41.6495 223.784 35.9005 219.501 32.0514C215.267 28.2023 210.27 26.2777 204.511 26.2777C195.896 26.2777 189.004 30.5956 183.835 39.2315C178.666 47.8674 176.057 60.7965 176.008 78.0189C176.008 89.6649 177.165 99.3865 179.478 107.183C181.841 114.931 185.164 120.754 189.447 124.653C193.73 128.502 198.751 130.426 204.511 130.426Z" fill="#2862FF"/>
<path d="M286.087 127.021V101.78L349.222 2.07261H370.931V37.0108H358.083L318.282 100.151V101.336H408V127.021H286.087ZM358.674 153.669V119.323L359.265 108.146V2.07261H389.244V153.669H358.674Z" fill="#2862FF"/>
</mask>
<g mask="url(#mask12_21_9)">
<rect x="2" y="62" width="406" height="31.4" fill="black"/>
</g>
<mask id="mask13_21_9" style="mask-type:alpha" maskUnits="userSpaceOnUse" x="2" y="0" width="406" height="157">
<path d="M2 127.021V101.78L65.1346 2.07261H86.8441V37.0108H73.9956L34.195 100.151V101.336H123.913V127.021H2ZM74.5864 153.669V119.323L75.1771 108.146V2.07261H105.157V153.669H74.5864Z" fill="#2862FF"/>
<path d="M204.511 157C191.81 156.951 180.881 153.817 171.725 147.599C162.618 141.381 155.603 132.375 150.68 120.581C145.807 108.787 143.395 94.5997 143.444 78.0189C143.444 61.4873 145.881 47.3986 150.754 35.7525C155.677 24.1064 162.692 15.2485 171.799 9.1787C180.955 3.05957 191.859 0 204.511 0C217.162 0 228.042 3.05957 237.149 9.1787C246.305 15.2978 253.345 24.1804 258.268 35.8265C263.19 47.4232 265.627 61.4873 265.578 78.0189C265.578 94.6491 263.116 108.861 258.194 120.655C253.32 132.449 246.33 141.455 237.223 147.673C228.116 153.891 217.212 157 204.511 157ZM204.511 130.426C213.175 130.426 220.091 126.059 225.26 117.324C230.429 108.59 232.989 95.488 232.94 78.0189C232.94 66.5208 231.758 56.9473 229.395 49.2984C227.082 41.6495 223.784 35.9005 219.501 32.0514C215.267 28.2023 210.27 26.2777 204.511 26.2777C195.896 26.2777 189.004 30.5956 183.835 39.2315C178.666 47.8674 176.057 60.7965 176.008 78.0189C176.008 89.6649 177.165 99.3865 179.478 107.183C181.841 114.931 185.164 120.754 189.447 124.653C193.73 128.502 198.751 130.426 204.511 130.426Z" fill="#2862FF"/>
<path d="M286.087 127.021V101.78L349.222 2.07261H370.931V37.0108H358.083L318.282 100.151V101.336H408V127.021H286.087ZM358.674 153.669V119.323L359.265 108.146V2.07261H389.244V153.669H358.674Z" fill="#2862FF"/>
</mask>
<g mask="url(#mask13_21_9)">
<rect x="2" y="30.6" width="406" height="31.4" fill="black"/>
</g>
<mask id="mask14_21_9" style="mask-type:alpha" maskUnits="userSpaceOnUse" x="2" y="0" width="406" height="157">
<path d="M2 127.021V101.78L65.1346 2.07261H86.8441V37.0108H73.9956L34.195 100.151V101.336H123.913V127.021H2ZM74.5864 153.669V119.323L75.1771 108.146V2.07261H105.157V153.669H74.5864Z" fill="#2862FF"/>
<path d="M204.511 157C191.81 156.951 180.881 153.817 171.725 147.599C162.618 141.381 155.603 132.375 150.68 120.581C145.807 108.787 143.395 94.5997 143.444 78.0189C143.444 61.4873 145.881 47.3986 150.754 35.7525C155.677 24.1064 162.692 15.2485 171.799 9.1787C180.955 3.05957 191.859 0 204.511 0C217.162 0 228.042 3.05957 237.149 9.1787C246.305 15.2978 253.345 24.1804 258.268 35.8265C263.19 47.4232 265.627 61.4873 265.578 78.0189C265.578 94.6491 263.116 108.861 258.194 120.655C253.32 132.449 246.33 141.455 237.223 147.673C228.116 153.891 217.212 157 204.511 157ZM204.511 130.426C213.175 130.426 220.091 126.059 225.26 117.324C230.429 108.59 232.989 95.488 232.94 78.0189C232.94 66.5208 231.758 56.9473 229.395 49.2984C227.082 41.6495 223.784 35.9005 219.501 32.0514C215.267 28.2023 210.27 26.2777 204.511 26.2777C195.896 26.2777 189.004 30.5956 183.835 39.2315C178.666 47.8674 176.057 60.7965 176.008 78.0189C176.008 89.6649 177.165 99.3865 179.478 107.183C181.841 114.931 185.164 120.754 189.447 124.653C193.73 128.502 198.751 130.426 204.511 130.426Z" fill="#2862FF"/>
<path d="M286.087 127.021V101.78L349.222 2.07261H370.931V37.0108H358.083L318.282 100.151V101.336H408V127.021H286.087ZM358.674 153.669V119.323L359.265 108.146V2.07261H389.244V153.669H358.674Z" fill="#2862FF"/>
</mask>
<g mask="url(#mask14_21_9)">
<rect x="2" width="406" height="31.4" fill="black"/>
</g>
</svg>
