<svg width="453" height="168" viewBox="0 0 453 168" fill="none" xmlns="http://www.w3.org/2000/svg">
<mask id="mask0_21_11" style="mask-type:alpha" maskUnits="userSpaceOnUse" x="18" y="0" width="406" height="157">
<path d="M18 127.021V101.78L81.1346 2.07261H102.844V37.0108H89.9956L50.195 100.151V101.336H139.913V127.021H18ZM90.5864 153.669V119.323L91.1771 108.146V2.07261H121.157V153.669H90.5864Z" fill="#2862FF"/>
<path d="M220.511 157C207.81 156.951 196.881 153.817 187.725 147.599C178.618 141.381 171.603 132.375 166.68 120.581C161.807 108.787 159.395 94.5997 159.444 78.0189C159.444 61.4873 161.881 47.3986 166.754 35.7525C171.677 24.1064 178.692 15.2485 187.799 9.1787C196.955 3.05957 207.859 0 220.511 0C233.162 0 244.042 3.05957 253.149 9.1787C262.305 15.2978 269.345 24.1804 274.268 35.8265C279.19 47.4232 281.627 61.4873 281.578 78.0189C281.578 94.6491 279.116 108.861 274.194 120.655C269.32 132.449 262.33 141.455 253.223 147.673C244.116 153.891 233.212 157 220.511 157ZM220.511 130.426C229.175 130.426 236.091 126.059 241.26 117.324C246.429 108.59 248.989 95.488 248.94 78.0189C248.94 66.5208 247.758 56.9473 245.395 49.2984C243.082 41.6495 239.783 35.9005 235.501 32.0514C231.267 28.2023 226.27 26.2777 220.511 26.2777C211.896 26.2777 205.004 30.5956 199.835 39.2315C194.666 47.8674 192.057 60.7965 192.008 78.0189C192.008 89.6649 193.165 99.3865 195.478 107.183C197.841 114.931 201.164 120.754 205.447 124.653C209.73 128.502 214.751 130.426 220.511 130.426Z" fill="#2862FF"/>
<path d="M302.087 127.021V101.78L365.222 2.07261H386.931V37.0108H374.083L334.282 100.151V101.336H424V127.021H302.087ZM374.674 153.669V119.323L375.264 108.146V2.07261H405.244V153.669H374.674Z" fill="#2862FF"/>
</mask>
<g mask="url(#mask0_21_11)">
<rect x="18" y="124.6" width="406" height="32.4" fill="#56EBFF"/>
</g>
<mask id="mask1_21_11" style="mask-type:alpha" maskUnits="userSpaceOnUse" x="47" y="0" width="406" height="157">
<path d="M47 127.021V101.78L110.135 2.07261H131.844V37.0108H118.996L79.195 100.151V101.336H168.913V127.021H47ZM119.586 153.669V119.323L120.177 108.146V2.07261H150.157V153.669H119.586Z" fill="#2862FF"/>
<path d="M249.511 157C236.81 156.951 225.881 153.817 216.725 147.599C207.618 141.381 200.603 132.375 195.68 120.581C190.807 108.787 188.395 94.5997 188.444 78.0189C188.444 61.4873 190.881 47.3986 195.754 35.7525C200.677 24.1064 207.692 15.2485 216.799 9.1787C225.955 3.05957 236.859 0 249.511 0C262.162 0 273.042 3.05957 282.149 9.1787C291.305 15.2978 298.345 24.1804 303.268 35.8265C308.19 47.4232 310.627 61.4873 310.578 78.0189C310.578 94.6491 308.116 108.861 303.194 120.655C298.32 132.449 291.33 141.455 282.223 147.673C273.116 153.891 262.212 157 249.511 157ZM249.511 130.426C258.175 130.426 265.091 126.059 270.26 117.324C275.429 108.59 277.989 95.488 277.94 78.0189C277.94 66.5208 276.758 56.9473 274.395 49.2984C272.082 41.6495 268.784 35.9005 264.501 32.0514C260.267 28.2023 255.27 26.2777 249.511 26.2777C240.896 26.2777 234.004 30.5956 228.835 39.2315C223.666 47.8674 221.057 60.7965 221.008 78.0189C221.008 89.6649 222.165 99.3865 224.478 107.183C226.841 114.931 230.164 120.754 234.447 124.653C238.73 128.502 243.751 130.426 249.511 130.426Z" fill="#2862FF"/>
<path d="M331.087 127.021V101.78L394.222 2.07261H415.931V37.0108H403.083L363.282 100.151V101.336H453V127.021H331.087ZM403.674 153.669V119.323L404.265 108.146V2.07261H434.244V153.669H403.674Z" fill="#2862FF"/>
</mask>
<g mask="url(#mask1_21_11)">
<rect x="47" y="93.4" width="406" height="31.4" fill="#56EBFF"/>
</g>
<mask id="mask2_21_11" style="mask-type:alpha" maskUnits="userSpaceOnUse" x="15" y="0" width="406" height="157">
<path d="M15 127.021V101.78L78.1346 2.07261H99.8441V37.0108H86.9956L47.195 100.151V101.336H136.913V127.021H15ZM87.5864 153.669V119.323L88.1771 108.146V2.07261H118.157V153.669H87.5864Z" fill="#2862FF"/>
<path d="M217.511 157C204.81 156.951 193.881 153.817 184.725 147.599C175.618 141.381 168.603 132.375 163.68 120.581C158.807 108.787 156.395 94.5997 156.444 78.0189C156.444 61.4873 158.881 47.3986 163.754 35.7525C168.677 24.1064 175.692 15.2485 184.799 9.1787C193.955 3.05957 204.859 0 217.511 0C230.162 0 241.042 3.05957 250.149 9.1787C259.305 15.2978 266.345 24.1804 271.268 35.8265C276.19 47.4232 278.627 61.4873 278.578 78.0189C278.578 94.6491 276.116 108.861 271.194 120.655C266.32 132.449 259.33 141.455 250.223 147.673C241.116 153.891 230.212 157 217.511 157ZM217.511 130.426C226.175 130.426 233.091 126.059 238.26 117.324C243.429 108.59 245.989 95.488 245.94 78.0189C245.94 66.5208 244.758 56.9473 242.395 49.2984C240.082 41.6495 236.784 35.9005 232.501 32.0514C228.267 28.2023 223.27 26.2777 217.511 26.2777C208.896 26.2777 202.004 30.5956 196.835 39.2315C191.666 47.8674 189.057 60.7965 189.008 78.0189C189.008 89.6649 190.165 99.3865 192.478 107.183C194.841 114.931 198.164 120.754 202.447 124.653C206.73 128.502 211.751 130.426 217.511 130.426Z" fill="#2862FF"/>
<path d="M299.087 127.021V101.78L362.222 2.07261H383.931V37.0108H371.083L331.282 100.151V101.336H421V127.021H299.087ZM371.674 153.669V119.323L372.265 108.146V2.07261H402.244V153.669H371.674Z" fill="#2862FF"/>
</mask>
<g mask="url(#mask2_21_11)">
<rect x="15" y="62" width="406" height="31.4" fill="#56EBFF"/>
</g>
<mask id="mask3_21_11" style="mask-type:alpha" maskUnits="userSpaceOnUse" x="8" y="11" width="406" height="157">
<path d="M8 138.021V112.78L71.1346 13.0726H92.8441V48.0108H79.9956L40.195 111.151V112.336H129.913V138.021H8ZM80.5864 164.669V130.323L81.1771 119.146V13.0726H111.157V164.669H80.5864Z" fill="#2862FF"/>
<path d="M210.511 168C197.81 167.951 186.881 164.817 177.725 158.599C168.618 152.381 161.603 143.375 156.68 131.581C151.807 119.787 149.395 105.6 149.444 89.0189C149.444 72.4873 151.881 58.3986 156.754 46.7525C161.677 35.1064 168.692 26.2485 177.799 20.1787C186.955 14.0596 197.859 11 210.511 11C223.162 11 234.042 14.0596 243.149 20.1787C252.305 26.2978 259.345 35.1804 264.268 46.8265C269.19 58.4232 271.627 72.4873 271.578 89.0189C271.578 105.649 269.116 119.861 264.194 131.655C259.32 143.449 252.33 152.455 243.223 158.673C234.116 164.891 223.212 168 210.511 168ZM210.511 141.426C219.175 141.426 226.091 137.059 231.26 128.324C236.429 119.59 238.989 106.488 238.94 89.0189C238.94 77.5208 237.758 67.9473 235.395 60.2984C233.082 52.6495 229.784 46.9005 225.501 43.0514C221.267 39.2023 216.27 37.2777 210.511 37.2777C201.896 37.2777 195.004 41.5956 189.835 50.2315C184.666 58.8674 182.057 71.7965 182.008 89.0189C182.008 100.665 183.165 110.386 185.478 118.183C187.841 125.931 191.164 131.754 195.447 135.653C199.73 139.502 204.751 141.426 210.511 141.426Z" fill="#2862FF"/>
<path d="M292.087 138.021V112.78L355.222 13.0726H376.931V48.0108H364.083L324.282 111.151V112.336H414V138.021H292.087ZM364.674 164.669V130.323L365.265 119.146V13.0726H395.244V164.669H364.674Z" fill="#2862FF"/>
</mask>
<g mask="url(#mask3_21_11)">
<rect x="8" y="41.6" width="406" height="31.4" fill="#56EBFF"/>
</g>
<mask id="mask4_21_11" style="mask-type:alpha" maskUnits="userSpaceOnUse" x="0" y="0" width="406" height="157">
<path d="M0 127.021V101.78L63.1346 2.07261H84.8441V37.0108H71.9956L32.195 100.151V101.336H121.913V127.021H0ZM72.5864 153.669V119.323L73.1771 108.146V2.07261H103.157V153.669H72.5864Z" fill="#2862FF"/>
<path d="M202.511 157C189.81 156.951 178.881 153.817 169.725 147.599C160.618 141.381 153.603 132.375 148.68 120.581C143.807 108.787 141.395 94.5997 141.444 78.0189C141.444 61.4873 143.881 47.3986 148.754 35.7525C153.677 24.1064 160.692 15.2485 169.799 9.1787C178.955 3.05957 189.859 0 202.511 0C215.162 0 226.042 3.05957 235.149 9.1787C244.305 15.2978 251.345 24.1804 256.268 35.8265C261.19 47.4232 263.627 61.4873 263.578 78.0189C263.578 94.6491 261.116 108.861 256.194 120.655C251.32 132.449 244.33 141.455 235.223 147.673C226.116 153.891 215.212 157 202.511 157ZM202.511 130.426C211.175 130.426 218.091 126.059 223.26 117.324C228.429 108.59 230.989 95.488 230.94 78.0189C230.94 66.5208 229.758 56.9473 227.395 49.2984C225.082 41.6495 221.784 35.9005 217.501 32.0514C213.267 28.2023 208.27 26.2777 202.511 26.2777C193.896 26.2777 187.004 30.5956 181.835 39.2315C176.666 47.8674 174.057 60.7965 174.008 78.0189C174.008 89.6649 175.165 99.3865 177.478 107.183C179.841 114.931 183.164 120.754 187.447 124.653C191.73 128.502 196.751 130.426 202.511 130.426Z" fill="#2862FF"/>
<path d="M284.087 127.021V101.78L347.222 2.07261H368.931V37.0108H356.083L316.282 100.151V101.336H406V127.021H284.087ZM356.674 153.669V119.323L357.265 108.146V2.07261H387.244V153.669H356.674Z" fill="#2862FF"/>
</mask>
<g mask="url(#mask4_21_11)">
<rect width="406" height="31.4" fill="#56EBFF"/>
</g>
<mask id="mask5_21_11" style="mask-type:alpha" maskUnits="userSpaceOnUse" x="14" y="0" width="406" height="157">
<path d="M14 127.021V101.78L77.1346 2.07261H98.8441V37.0108H85.9956L46.195 100.151V101.336H135.913V127.021H14ZM86.5864 153.669V119.323L87.1771 108.146V2.07261H117.157V153.669H86.5864Z" fill="#2862FF"/>
<path d="M216.511 157C203.81 156.951 192.881 153.817 183.725 147.599C174.618 141.381 167.603 132.375 162.68 120.581C157.807 108.787 155.395 94.5997 155.444 78.0189C155.444 61.4873 157.881 47.3986 162.754 35.7525C167.677 24.1064 174.692 15.2485 183.799 9.1787C192.955 3.05957 203.859 0 216.511 0C229.162 0 240.042 3.05957 249.149 9.1787C258.305 15.2978 265.345 24.1804 270.268 35.8265C275.19 47.4232 277.627 61.4873 277.578 78.0189C277.578 94.6491 275.116 108.861 270.194 120.655C265.32 132.449 258.33 141.455 249.223 147.673C240.116 153.891 229.212 157 216.511 157ZM216.511 130.426C225.175 130.426 232.091 126.059 237.26 117.324C242.429 108.59 244.989 95.488 244.94 78.0189C244.94 66.5208 243.758 56.9473 241.395 49.2984C239.082 41.6495 235.783 35.9005 231.501 32.0514C227.267 28.2023 222.27 26.2777 216.511 26.2777C207.896 26.2777 201.004 30.5956 195.835 39.2315C190.666 47.8674 188.057 60.7965 188.008 78.0189C188.008 89.6649 189.165 99.3865 191.478 107.183C193.841 114.931 197.164 120.754 201.447 124.653C205.73 128.502 210.751 130.426 216.511 130.426Z" fill="#2862FF"/>
<path d="M298.087 127.021V101.78L361.222 2.07261H382.931V37.0108H370.083L330.282 100.151V101.336H420V127.021H298.087ZM370.674 153.669V119.323L371.264 108.146V2.07261H401.244V153.669H370.674Z" fill="#2862FF"/>
</mask>
<g mask="url(#mask5_21_11)">
<rect x="14" y="124.6" width="406" height="32.4" fill="#FF0000"/>
</g>
<mask id="mask6_21_11" style="mask-type:alpha" maskUnits="userSpaceOnUse" x="35" y="0" width="406" height="157">
<path d="M35 127.021V101.78L98.1346 2.07261H119.844V37.0108H106.996L67.195 100.151V101.336H156.913V127.021H35ZM107.586 153.669V119.323L108.177 108.146V2.07261H138.157V153.669H107.586Z" fill="#2862FF"/>
<path d="M237.511 157C224.81 156.951 213.881 153.817 204.725 147.599C195.618 141.381 188.603 132.375 183.68 120.581C178.807 108.787 176.395 94.5997 176.444 78.0189C176.444 61.4873 178.881 47.3986 183.754 35.7525C188.677 24.1064 195.692 15.2485 204.799 9.1787C213.955 3.05957 224.859 0 237.511 0C250.162 0 261.042 3.05957 270.149 9.1787C279.305 15.2978 286.345 24.1804 291.268 35.8265C296.19 47.4232 298.627 61.4873 298.578 78.0189C298.578 94.6491 296.116 108.861 291.194 120.655C286.32 132.449 279.33 141.455 270.223 147.673C261.116 153.891 250.212 157 237.511 157ZM237.511 130.426C246.175 130.426 253.091 126.059 258.26 117.324C263.429 108.59 265.989 95.488 265.94 78.0189C265.94 66.5208 264.758 56.9473 262.395 49.2984C260.082 41.6495 256.784 35.9005 252.501 32.0514C248.267 28.2023 243.27 26.2777 237.511 26.2777C228.896 26.2777 222.004 30.5956 216.835 39.2315C211.666 47.8674 209.057 60.7965 209.008 78.0189C209.008 89.6649 210.165 99.3865 212.478 107.183C214.841 114.931 218.164 120.754 222.447 124.653C226.73 128.502 231.751 130.426 237.511 130.426Z" fill="#2862FF"/>
<path d="M319.087 127.021V101.78L382.222 2.07261H403.931V37.0108H391.083L351.282 100.151V101.336H441V127.021H319.087ZM391.674 153.669V119.323L392.265 108.146V2.07261H422.244V153.669H391.674Z" fill="#2862FF"/>
</mask>
<g mask="url(#mask6_21_11)">
<rect x="35" y="93.4" width="406" height="31.4" fill="#FF0000"/>
</g>
<mask id="mask7_21_11" style="mask-type:alpha" maskUnits="userSpaceOnUse" x="25" y="0" width="406" height="157">
<path d="M25 127.021V101.78L88.1346 2.07261H109.844V37.0108H96.9956L57.195 100.151V101.336H146.913V127.021H25ZM97.5864 153.669V119.323L98.1771 108.146V2.07261H128.157V153.669H97.5864Z" fill="#2862FF"/>
<path d="M227.511 157C214.81 156.951 203.881 153.817 194.725 147.599C185.618 141.381 178.603 132.375 173.68 120.581C168.807 108.787 166.395 94.5997 166.444 78.0189C166.444 61.4873 168.881 47.3986 173.754 35.7525C178.677 24.1064 185.692 15.2485 194.799 9.1787C203.955 3.05957 214.859 0 227.511 0C240.162 0 251.042 3.05957 260.149 9.1787C269.305 15.2978 276.345 24.1804 281.268 35.8265C286.19 47.4232 288.627 61.4873 288.578 78.0189C288.578 94.6491 286.116 108.861 281.194 120.655C276.32 132.449 269.33 141.455 260.223 147.673C251.116 153.891 240.212 157 227.511 157ZM227.511 130.426C236.175 130.426 243.091 126.059 248.26 117.324C253.429 108.59 255.989 95.488 255.94 78.0189C255.94 66.5208 254.758 56.9473 252.395 49.2984C250.082 41.6495 246.784 35.9005 242.501 32.0514C238.267 28.2023 233.27 26.2777 227.511 26.2777C218.896 26.2777 212.004 30.5956 206.835 39.2315C201.666 47.8674 199.057 60.7965 199.008 78.0189C199.008 89.6649 200.165 99.3865 202.478 107.183C204.841 114.931 208.164 120.754 212.447 124.653C216.73 128.502 221.751 130.426 227.511 130.426Z" fill="#2862FF"/>
<path d="M309.087 127.021V101.78L372.222 2.07261H393.931V37.0108H381.083L341.282 100.151V101.336H431V127.021H309.087ZM381.674 153.669V119.323L382.265 108.146V2.07261H412.244V153.669H381.674Z" fill="#2862FF"/>
</mask>
<g mask="url(#mask7_21_11)">
<rect x="25" y="62" width="406" height="31.4" fill="#FF0000"/>
</g>
<mask id="mask8_21_11" style="mask-type:alpha" maskUnits="userSpaceOnUse" x="10" y="0" width="406" height="157">
<path d="M10 127.021V101.78L73.1346 2.07261H94.8441V37.0108H81.9956L42.195 100.151V101.336H131.913V127.021H10ZM82.5864 153.669V119.323L83.1771 108.146V2.07261H113.157V153.669H82.5864Z" fill="#2862FF"/>
<path d="M212.511 157C199.81 156.951 188.881 153.817 179.725 147.599C170.618 141.381 163.603 132.375 158.68 120.581C153.807 108.787 151.395 94.5997 151.444 78.0189C151.444 61.4873 153.881 47.3986 158.754 35.7525C163.677 24.1064 170.692 15.2485 179.799 9.1787C188.955 3.05957 199.859 0 212.511 0C225.162 0 236.042 3.05957 245.149 9.1787C254.305 15.2978 261.345 24.1804 266.268 35.8265C271.19 47.4232 273.627 61.4873 273.578 78.0189C273.578 94.6491 271.116 108.861 266.194 120.655C261.32 132.449 254.33 141.455 245.223 147.673C236.116 153.891 225.212 157 212.511 157ZM212.511 130.426C221.175 130.426 228.091 126.059 233.26 117.324C238.429 108.59 240.989 95.488 240.94 78.0189C240.94 66.5208 239.758 56.9473 237.395 49.2984C235.082 41.6495 231.784 35.9005 227.501 32.0514C223.267 28.2023 218.27 26.2777 212.511 26.2777C203.896 26.2777 197.004 30.5956 191.835 39.2315C186.666 47.8674 184.057 60.7965 184.008 78.0189C184.008 89.6649 185.165 99.3865 187.478 107.183C189.841 114.931 193.164 120.754 197.447 124.653C201.73 128.502 206.751 130.426 212.511 130.426Z" fill="#2862FF"/>
<path d="M294.087 127.021V101.78L357.222 2.07261H378.931V37.0108H366.083L326.282 100.151V101.336H416V127.021H294.087ZM366.674 153.669V119.323L367.265 108.146V2.07261H397.244V153.669H366.674Z" fill="#2862FF"/>
</mask>
<g mask="url(#mask8_21_11)">
<rect x="10" y="30.6" width="406" height="31.4" fill="#FF0000"/>
</g>
<mask id="mask9_21_11" style="mask-type:alpha" maskUnits="userSpaceOnUse" x="6" y="0" width="406" height="157">
<path d="M6 127.021V101.78L69.1346 2.07261H90.8441V37.0108H77.9956L38.195 100.151V101.336H127.913V127.021H6ZM78.5864 153.669V119.323L79.1771 108.146V2.07261H109.157V153.669H78.5864Z" fill="#2862FF"/>
<path d="M208.511 157C195.81 156.951 184.881 153.817 175.725 147.599C166.618 141.381 159.603 132.375 154.68 120.581C149.807 108.787 147.395 94.5997 147.444 78.0189C147.444 61.4873 149.881 47.3986 154.754 35.7525C159.677 24.1064 166.692 15.2485 175.799 9.1787C184.955 3.05957 195.859 0 208.511 0C221.162 0 232.042 3.05957 241.149 9.1787C250.305 15.2978 257.345 24.1804 262.268 35.8265C267.19 47.4232 269.627 61.4873 269.578 78.0189C269.578 94.6491 267.116 108.861 262.194 120.655C257.32 132.449 250.33 141.455 241.223 147.673C232.116 153.891 221.212 157 208.511 157ZM208.511 130.426C217.175 130.426 224.091 126.059 229.26 117.324C234.429 108.59 236.989 95.488 236.94 78.0189C236.94 66.5208 235.758 56.9473 233.395 49.2984C231.082 41.6495 227.784 35.9005 223.501 32.0514C219.267 28.2023 214.27 26.2777 208.511 26.2777C199.896 26.2777 193.004 30.5956 187.835 39.2315C182.666 47.8674 180.057 60.7965 180.008 78.0189C180.008 89.6649 181.165 99.3865 183.478 107.183C185.841 114.931 189.164 120.754 193.447 124.653C197.73 128.502 202.751 130.426 208.511 130.426Z" fill="#2862FF"/>
<path d="M290.087 127.021V101.78L353.222 2.07261H374.931V37.0108H362.083L322.282 100.151V101.336H412V127.021H290.087ZM362.674 153.669V119.323L363.265 108.146V2.07261H393.244V153.669H362.674Z" fill="#2862FF"/>
</mask>
<g mask="url(#mask9_21_11)">
<rect x="6" width="406" height="31.4" fill="#FF0000"/>
</g>
<mask id="mask10_21_11" style="mask-type:alpha" maskUnits="userSpaceOnUse" x="11" y="0" width="406" height="157">
<path d="M11 127.021V101.78L74.1346 2.07261H95.8441V37.0108H82.9956L43.195 100.151V101.336H132.913V127.021H11ZM83.5864 153.669V119.323L84.1771 108.146V2.07261H114.157V153.669H83.5864Z" fill="#2862FF"/>
<path d="M213.511 157C200.81 156.951 189.881 153.817 180.725 147.599C171.618 141.381 164.603 132.375 159.68 120.581C154.807 108.787 152.395 94.5997 152.444 78.0189C152.444 61.4873 154.881 47.3986 159.754 35.7525C164.677 24.1064 171.692 15.2485 180.799 9.1787C189.955 3.05957 200.859 0 213.511 0C226.162 0 237.042 3.05957 246.149 9.1787C255.305 15.2978 262.345 24.1804 267.268 35.8265C272.19 47.4232 274.627 61.4873 274.578 78.0189C274.578 94.6491 272.116 108.861 267.194 120.655C262.32 132.449 255.33 141.455 246.223 147.673C237.116 153.891 226.212 157 213.511 157ZM213.511 130.426C222.175 130.426 229.091 126.059 234.26 117.324C239.429 108.59 241.989 95.488 241.94 78.0189C241.94 66.5208 240.758 56.9473 238.395 49.2984C236.082 41.6495 232.783 35.9005 228.501 32.0514C224.267 28.2023 219.27 26.2777 213.511 26.2777C204.896 26.2777 198.004 30.5956 192.835 39.2315C187.666 47.8674 185.057 60.7965 185.008 78.0189C185.008 89.6649 186.165 99.3865 188.478 107.183C190.841 114.931 194.164 120.754 198.447 124.653C202.73 128.502 207.751 130.426 213.511 130.426Z" fill="#2862FF"/>
<path d="M295.087 127.021V101.78L358.222 2.07261H379.931V37.0108H367.083L327.282 100.151V101.336H417V127.021H295.087ZM367.674 153.669V119.323L368.264 108.146V2.07261H398.244V153.669H367.674Z" fill="#2862FF"/>
</mask>
<g mask="url(#mask10_21_11)">
<rect x="11" y="124.6" width="406" height="32.4" fill="black"/>
</g>
<mask id="mask11_21_11" style="mask-type:alpha" maskUnits="userSpaceOnUse" x="31" y="0" width="406" height="157">
<path d="M31 127.021V101.78L94.1346 2.07261H115.844V37.0108H102.996L63.195 100.151V101.336H152.913V127.021H31ZM103.586 153.669V119.323L104.177 108.146V2.07261H134.157V153.669H103.586Z" fill="#2862FF"/>
<path d="M233.511 157C220.81 156.951 209.881 153.817 200.725 147.599C191.618 141.381 184.603 132.375 179.68 120.581C174.807 108.787 172.395 94.5997 172.444 78.0189C172.444 61.4873 174.881 47.3986 179.754 35.7525C184.677 24.1064 191.692 15.2485 200.799 9.1787C209.955 3.05957 220.859 0 233.511 0C246.162 0 257.042 3.05957 266.149 9.1787C275.305 15.2978 282.345 24.1804 287.268 35.8265C292.19 47.4232 294.627 61.4873 294.578 78.0189C294.578 94.6491 292.116 108.861 287.194 120.655C282.32 132.449 275.33 141.455 266.223 147.673C257.116 153.891 246.212 157 233.511 157ZM233.511 130.426C242.175 130.426 249.091 126.059 254.26 117.324C259.429 108.59 261.989 95.488 261.94 78.0189C261.94 66.5208 260.758 56.9473 258.395 49.2984C256.082 41.6495 252.784 35.9005 248.501 32.0514C244.267 28.2023 239.27 26.2777 233.511 26.2777C224.896 26.2777 218.004 30.5956 212.835 39.2315C207.666 47.8674 205.057 60.7965 205.008 78.0189C205.008 89.6649 206.165 99.3865 208.478 107.183C210.841 114.931 214.164 120.754 218.447 124.653C222.73 128.502 227.751 130.426 233.511 130.426Z" fill="#2862FF"/>
<path d="M315.087 127.021V101.78L378.222 2.07261H399.931V37.0108H387.083L347.282 100.151V101.336H437V127.021H315.087ZM387.674 153.669V119.323L388.265 108.146V2.07261H418.244V153.669H387.674Z" fill="#2862FF"/>
</mask>
<g mask="url(#mask11_21_11)">
<rect x="31" y="93.4" width="406" height="31.4" fill="black"/>
</g>
<mask id="mask12_21_11" style="mask-type:alpha" maskUnits="userSpaceOnUse" x="17" y="0" width="406" height="157">
<path d="M17 127.021V101.78L80.1346 2.07261H101.844V37.0108H88.9956L49.195 100.151V101.336H138.913V127.021H17ZM89.5864 153.669V119.323L90.1771 108.146V2.07261H120.157V153.669H89.5864Z" fill="#2862FF"/>
<path d="M219.511 157C206.81 156.951 195.881 153.817 186.725 147.599C177.618 141.381 170.603 132.375 165.68 120.581C160.807 108.787 158.395 94.5997 158.444 78.0189C158.444 61.4873 160.881 47.3986 165.754 35.7525C170.677 24.1064 177.692 15.2485 186.799 9.1787C195.955 3.05957 206.859 0 219.511 0C232.162 0 243.042 3.05957 252.149 9.1787C261.305 15.2978 268.345 24.1804 273.268 35.8265C278.19 47.4232 280.627 61.4873 280.578 78.0189C280.578 94.6491 278.116 108.861 273.194 120.655C268.32 132.449 261.33 141.455 252.223 147.673C243.116 153.891 232.212 157 219.511 157ZM219.511 130.426C228.175 130.426 235.091 126.059 240.26 117.324C245.429 108.59 247.989 95.488 247.94 78.0189C247.94 66.5208 246.758 56.9473 244.395 49.2984C242.082 41.6495 238.784 35.9005 234.501 32.0514C230.267 28.2023 225.27 26.2777 219.511 26.2777C210.896 26.2777 204.004 30.5956 198.835 39.2315C193.666 47.8674 191.057 60.7965 191.008 78.0189C191.008 89.6649 192.165 99.3865 194.478 107.183C196.841 114.931 200.164 120.754 204.447 124.653C208.73 128.502 213.751 130.426 219.511 130.426Z" fill="#2862FF"/>
<path d="M301.087 127.021V101.78L364.222 2.07261H385.931V37.0108H373.083L333.282 100.151V101.336H423V127.021H301.087ZM373.674 153.669V119.323L374.265 108.146V2.07261H404.244V153.669H373.674Z" fill="#2862FF"/>
</mask>
<g mask="url(#mask12_21_11)">
<rect x="17" y="62" width="406" height="31.4" fill="black"/>
</g>
<mask id="mask13_21_11" style="mask-type:alpha" maskUnits="userSpaceOnUse" x="14" y="0" width="406" height="157">
<path d="M14 127.021V101.78L77.1346 2.07261H98.8441V37.0108H85.9956L46.195 100.151V101.336H135.913V127.021H14ZM86.5864 153.669V119.323L87.1771 108.146V2.07261H117.157V153.669H86.5864Z" fill="#2862FF"/>
<path d="M216.511 157C203.81 156.951 192.881 153.817 183.725 147.599C174.618 141.381 167.603 132.375 162.68 120.581C157.807 108.787 155.395 94.5997 155.444 78.0189C155.444 61.4873 157.881 47.3986 162.754 35.7525C167.677 24.1064 174.692 15.2485 183.799 9.1787C192.955 3.05957 203.859 0 216.511 0C229.162 0 240.042 3.05957 249.149 9.1787C258.305 15.2978 265.345 24.1804 270.268 35.8265C275.19 47.4232 277.627 61.4873 277.578 78.0189C277.578 94.6491 275.116 108.861 270.194 120.655C265.32 132.449 258.33 141.455 249.223 147.673C240.116 153.891 229.212 157 216.511 157ZM216.511 130.426C225.175 130.426 232.091 126.059 237.26 117.324C242.429 108.59 244.989 95.488 244.94 78.0189C244.94 66.5208 243.758 56.9473 241.395 49.2984C239.082 41.6495 235.784 35.9005 231.501 32.0514C227.267 28.2023 222.27 26.2777 216.511 26.2777C207.896 26.2777 201.004 30.5956 195.835 39.2315C190.666 47.8674 188.057 60.7965 188.008 78.0189C188.008 89.6649 189.165 99.3865 191.478 107.183C193.841 114.931 197.164 120.754 201.447 124.653C205.73 128.502 210.751 130.426 216.511 130.426Z" fill="#2862FF"/>
<path d="M298.087 127.021V101.78L361.222 2.07261H382.931V37.0108H370.083L330.282 100.151V101.336H420V127.021H298.087ZM370.674 153.669V119.323L371.265 108.146V2.07261H401.244V153.669H370.674Z" fill="#2862FF"/>
</mask>
<g mask="url(#mask13_21_11)">
<rect x="14" y="30.6" width="406" height="31.4" fill="black"/>
</g>
<mask id="mask14_21_11" style="mask-type:alpha" maskUnits="userSpaceOnUse" x="21" y="0" width="406" height="157">
<path d="M21 127.021V101.78L84.1346 2.07261H105.844V37.0108H92.9956L53.195 100.151V101.336H142.913V127.021H21ZM93.5864 153.669V119.323L94.1771 108.146V2.07261H124.157V153.669H93.5864Z" fill="#2862FF"/>
<path d="M223.511 157C210.81 156.951 199.881 153.817 190.725 147.599C181.618 141.381 174.603 132.375 169.68 120.581C164.807 108.787 162.395 94.5997 162.444 78.0189C162.444 61.4873 164.881 47.3986 169.754 35.7525C174.677 24.1064 181.692 15.2485 190.799 9.1787C199.955 3.05957 210.859 0 223.511 0C236.162 0 247.042 3.05957 256.149 9.1787C265.305 15.2978 272.345 24.1804 277.268 35.8265C282.19 47.4232 284.627 61.4873 284.578 78.0189C284.578 94.6491 282.116 108.861 277.194 120.655C272.32 132.449 265.33 141.455 256.223 147.673C247.116 153.891 236.212 157 223.511 157ZM223.511 130.426C232.175 130.426 239.091 126.059 244.26 117.324C249.429 108.59 251.989 95.488 251.94 78.0189C251.94 66.5208 250.758 56.9473 248.395 49.2984C246.082 41.6495 242.784 35.9005 238.501 32.0514C234.267 28.2023 229.27 26.2777 223.511 26.2777C214.896 26.2777 208.004 30.5956 202.835 39.2315C197.666 47.8674 195.057 60.7965 195.008 78.0189C195.008 89.6649 196.165 99.3865 198.478 107.183C200.841 114.931 204.164 120.754 208.447 124.653C212.73 128.502 217.751 130.426 223.511 130.426Z" fill="#2862FF"/>
<path d="M305.087 127.021V101.78L368.222 2.07261H389.931V37.0108H377.083L337.282 100.151V101.336H427V127.021H305.087ZM377.674 153.669V119.323L378.265 108.146V2.07261H408.244V153.669H377.674Z" fill="#2862FF"/>
</mask>
<g mask="url(#mask14_21_11)">
<rect x="21" width="406" height="31.4" fill="black"/>
</g>
</svg>
