<svg width="445" height="157" viewBox="0 0 445 157" fill="none" xmlns="http://www.w3.org/2000/svg">
<mask id="mask0_21_10" style="mask-type:alpha" maskUnits="userSpaceOnUse" x="0" y="0" width="406" height="157">
<path d="M0 127.021V101.78L63.1346 2.07261H84.8441V37.0108H71.9956L32.195 100.151V101.336H121.913V127.021H0ZM72.5864 153.669V119.323L73.1771 108.146V2.07261H103.157V153.669H72.5864Z" fill="#2862FF"/>
<path d="M202.511 157C189.81 156.951 178.881 153.817 169.725 147.599C160.618 141.381 153.603 132.375 148.68 120.581C143.807 108.787 141.395 94.5997 141.444 78.0189C141.444 61.4873 143.881 47.3986 148.754 35.7525C153.677 24.1064 160.692 15.2485 169.799 9.1787C178.955 3.05957 189.859 0 202.511 0C215.162 0 226.042 3.05957 235.149 9.1787C244.305 15.2978 251.345 24.1804 256.268 35.8265C261.19 47.4232 263.627 61.4873 263.578 78.0189C263.578 94.6491 261.116 108.861 256.194 120.655C251.32 132.449 244.33 141.455 235.223 147.673C226.116 153.891 215.212 157 202.511 157ZM202.511 130.426C211.175 130.426 218.091 126.059 223.26 117.324C228.429 108.59 230.989 95.488 230.94 78.0189C230.94 66.5208 229.758 56.9473 227.395 49.2984C225.082 41.6495 221.783 35.9005 217.501 32.0514C213.267 28.2023 208.27 26.2777 202.511 26.2777C193.896 26.2777 187.004 30.5956 181.835 39.2315C176.666 47.8674 174.057 60.7965 174.008 78.0189C174.008 89.6649 175.165 99.3865 177.478 107.183C179.841 114.931 183.164 120.754 187.447 124.653C191.73 128.502 196.751 130.426 202.511 130.426Z" fill="#2862FF"/>
<path d="M284.087 127.021V101.78L347.222 2.07261H368.931V37.0108H356.083L316.282 100.151V101.336H406V127.021H284.087ZM356.674 153.669V119.323L357.264 108.146V2.07261H387.244V153.669H356.674Z" fill="#2862FF"/>
</mask>
<g mask="url(#mask0_21_10)">
<rect y="124.6" width="406" height="32.4" fill="#56EBFF"/>
</g>
<mask id="mask1_21_10" style="mask-type:alpha" maskUnits="userSpaceOnUse" x="39" y="0" width="406" height="157">
<path d="M39 127.021V101.78L102.135 2.07261H123.844V37.0108H110.996L71.195 100.151V101.336H160.913V127.021H39ZM111.586 153.669V119.323L112.177 108.146V2.07261H142.157V153.669H111.586Z" fill="#2862FF"/>
<path d="M241.511 157C228.81 156.951 217.881 153.817 208.725 147.599C199.618 141.381 192.603 132.375 187.68 120.581C182.807 108.787 180.395 94.5997 180.444 78.0189C180.444 61.4873 182.881 47.3986 187.754 35.7525C192.677 24.1064 199.692 15.2485 208.799 9.1787C217.955 3.05957 228.859 0 241.511 0C254.162 0 265.042 3.05957 274.149 9.1787C283.305 15.2978 290.345 24.1804 295.268 35.8265C300.19 47.4232 302.627 61.4873 302.578 78.0189C302.578 94.6491 300.116 108.861 295.194 120.655C290.32 132.449 283.33 141.455 274.223 147.673C265.116 153.891 254.212 157 241.511 157ZM241.511 130.426C250.175 130.426 257.091 126.059 262.26 117.324C267.429 108.59 269.989 95.488 269.94 78.0189C269.94 66.5208 268.758 56.9473 266.395 49.2984C264.082 41.6495 260.784 35.9005 256.501 32.0514C252.267 28.2023 247.27 26.2777 241.511 26.2777C232.896 26.2777 226.004 30.5956 220.835 39.2315C215.666 47.8674 213.057 60.7965 213.008 78.0189C213.008 89.6649 214.165 99.3865 216.478 107.183C218.841 114.931 222.164 120.754 226.447 124.653C230.73 128.502 235.751 130.426 241.511 130.426Z" fill="#2862FF"/>
<path d="M323.087 127.021V101.78L386.222 2.07261H407.931V37.0108H395.083L355.282 100.151V101.336H445V127.021H323.087ZM395.674 153.669V119.323L396.265 108.146V2.07261H426.244V153.669H395.674Z" fill="#2862FF"/>
</mask>
<g mask="url(#mask1_21_10)">
<rect x="39" y="93.4" width="406" height="31.4" fill="#56EBFF"/>
</g>
<mask id="mask2_21_10" style="mask-type:alpha" maskUnits="userSpaceOnUse" x="17" y="0" width="406" height="157">
<path d="M17 127.021V101.78L80.1346 2.07261H101.844V37.0108H88.9956L49.195 100.151V101.336H138.913V127.021H17ZM89.5864 153.669V119.323L90.1771 108.146V2.07261H120.157V153.669H89.5864Z" fill="#2862FF"/>
<path d="M219.511 157C206.81 156.951 195.881 153.817 186.725 147.599C177.618 141.381 170.603 132.375 165.68 120.581C160.807 108.787 158.395 94.5997 158.444 78.0189C158.444 61.4873 160.881 47.3986 165.754 35.7525C170.677 24.1064 177.692 15.2485 186.799 9.1787C195.955 3.05957 206.859 0 219.511 0C232.162 0 243.042 3.05957 252.149 9.1787C261.305 15.2978 268.345 24.1804 273.268 35.8265C278.19 47.4232 280.627 61.4873 280.578 78.0189C280.578 94.6491 278.116 108.861 273.194 120.655C268.32 132.449 261.33 141.455 252.223 147.673C243.116 153.891 232.212 157 219.511 157ZM219.511 130.426C228.175 130.426 235.091 126.059 240.26 117.324C245.429 108.59 247.989 95.488 247.94 78.0189C247.94 66.5208 246.758 56.9473 244.395 49.2984C242.082 41.6495 238.784 35.9005 234.501 32.0514C230.267 28.2023 225.27 26.2777 219.511 26.2777C210.896 26.2777 204.004 30.5956 198.835 39.2315C193.666 47.8674 191.057 60.7965 191.008 78.0189C191.008 89.6649 192.165 99.3865 194.478 107.183C196.841 114.931 200.164 120.754 204.447 124.653C208.73 128.502 213.751 130.426 219.511 130.426Z" fill="#2862FF"/>
<path d="M301.087 127.021V101.78L364.222 2.07261H385.931V37.0108H373.083L333.282 100.151V101.336H423V127.021H301.087ZM373.674 153.669V119.323L374.265 108.146V2.07261H404.244V153.669H373.674Z" fill="#2862FF"/>
</mask>
<g mask="url(#mask2_21_10)">
<rect x="17" y="62" width="406" height="31.4" fill="#56EBFF"/>
</g>
<mask id="mask3_21_10" style="mask-type:alpha" maskUnits="userSpaceOnUse" x="10" y="0" width="406" height="157">
<path d="M10 127.021V101.78L73.1346 2.07261H94.8441V37.0108H81.9956L42.195 100.151V101.336H131.913V127.021H10ZM82.5864 153.669V119.323L83.1771 108.146V2.07261H113.157V153.669H82.5864Z" fill="#2862FF"/>
<path d="M212.511 157C199.81 156.951 188.881 153.817 179.725 147.599C170.618 141.381 163.603 132.375 158.68 120.581C153.807 108.787 151.395 94.5997 151.444 78.0189C151.444 61.4873 153.881 47.3986 158.754 35.7525C163.677 24.1064 170.692 15.2485 179.799 9.1787C188.955 3.05957 199.859 0 212.511 0C225.162 0 236.042 3.05957 245.149 9.1787C254.305 15.2978 261.345 24.1804 266.268 35.8265C271.19 47.4232 273.627 61.4873 273.578 78.0189C273.578 94.6491 271.116 108.861 266.194 120.655C261.32 132.449 254.33 141.455 245.223 147.673C236.116 153.891 225.212 157 212.511 157ZM212.511 130.426C221.175 130.426 228.091 126.059 233.26 117.324C238.429 108.59 240.989 95.488 240.94 78.0189C240.94 66.5208 239.758 56.9473 237.395 49.2984C235.082 41.6495 231.784 35.9005 227.501 32.0514C223.267 28.2023 218.27 26.2777 212.511 26.2777C203.896 26.2777 197.004 30.5956 191.835 39.2315C186.666 47.8674 184.057 60.7965 184.008 78.0189C184.008 89.6649 185.165 99.3865 187.478 107.183C189.841 114.931 193.164 120.754 197.447 124.653C201.73 128.502 206.751 130.426 212.511 130.426Z" fill="#2862FF"/>
<path d="M294.087 127.021V101.78L357.222 2.07261H378.931V37.0108H366.083L326.282 100.151V101.336H416V127.021H294.087ZM366.674 153.669V119.323L367.265 108.146V2.07261H397.244V153.669H366.674Z" fill="#2862FF"/>
</mask>
<g mask="url(#mask3_21_10)">
<rect x="10" y="30.6" width="406" height="31.4" fill="#56EBFF"/>
</g>
<mask id="mask4_21_10" style="mask-type:alpha" maskUnits="userSpaceOnUse" x="19" y="0" width="406" height="157">
<path d="M19 127.021V101.78L82.1346 2.07261H103.844V37.0108H90.9956L51.195 100.151V101.336H140.913V127.021H19ZM91.5864 153.669V119.323L92.1771 108.146V2.07261H122.157V153.669H91.5864Z" fill="#2862FF"/>
<path d="M221.511 157C208.81 156.951 197.881 153.817 188.725 147.599C179.618 141.381 172.603 132.375 167.68 120.581C162.807 108.787 160.395 94.5997 160.444 78.0189C160.444 61.4873 162.881 47.3986 167.754 35.7525C172.677 24.1064 179.692 15.2485 188.799 9.1787C197.955 3.05957 208.859 0 221.511 0C234.162 0 245.042 3.05957 254.149 9.1787C263.305 15.2978 270.345 24.1804 275.268 35.8265C280.19 47.4232 282.627 61.4873 282.578 78.0189C282.578 94.6491 280.116 108.861 275.194 120.655C270.32 132.449 263.33 141.455 254.223 147.673C245.116 153.891 234.212 157 221.511 157ZM221.511 130.426C230.175 130.426 237.091 126.059 242.26 117.324C247.429 108.59 249.989 95.488 249.94 78.0189C249.94 66.5208 248.758 56.9473 246.395 49.2984C244.082 41.6495 240.784 35.9005 236.501 32.0514C232.267 28.2023 227.27 26.2777 221.511 26.2777C212.896 26.2777 206.004 30.5956 200.835 39.2315C195.666 47.8674 193.057 60.7965 193.008 78.0189C193.008 89.6649 194.165 99.3865 196.478 107.183C198.841 114.931 202.164 120.754 206.447 124.653C210.73 128.502 215.751 130.426 221.511 130.426Z" fill="#2862FF"/>
<path d="M303.087 127.021V101.78L366.222 2.07261H387.931V37.0108H375.083L335.282 100.151V101.336H425V127.021H303.087ZM375.674 153.669V119.323L376.265 108.146V2.07261H406.244V153.669H375.674Z" fill="#2862FF"/>
</mask>
<g mask="url(#mask4_21_10)">
<rect x="19" width="406" height="31.4" fill="#56EBFF"/>
</g>
<mask id="mask5_21_10" style="mask-type:alpha" maskUnits="userSpaceOnUse" x="11" y="0" width="406" height="157">
<path d="M11 127.021V101.78L74.1346 2.07261H95.8441V37.0108H82.9956L43.195 100.151V101.336H132.913V127.021H11ZM83.5864 153.669V119.323L84.1771 108.146V2.07261H114.157V153.669H83.5864Z" fill="#2862FF"/>
<path d="M213.511 157C200.81 156.951 189.881 153.817 180.725 147.599C171.618 141.381 164.603 132.375 159.68 120.581C154.807 108.787 152.395 94.5997 152.444 78.0189C152.444 61.4873 154.881 47.3986 159.754 35.7525C164.677 24.1064 171.692 15.2485 180.799 9.1787C189.955 3.05957 200.859 0 213.511 0C226.162 0 237.042 3.05957 246.149 9.1787C255.305 15.2978 262.345 24.1804 267.268 35.8265C272.19 47.4232 274.627 61.4873 274.578 78.0189C274.578 94.6491 272.116 108.861 267.194 120.655C262.32 132.449 255.33 141.455 246.223 147.673C237.116 153.891 226.212 157 213.511 157ZM213.511 130.426C222.175 130.426 229.091 126.059 234.26 117.324C239.429 108.59 241.989 95.488 241.94 78.0189C241.94 66.5208 240.758 56.9473 238.395 49.2984C236.082 41.6495 232.783 35.9005 228.501 32.0514C224.267 28.2023 219.27 26.2777 213.511 26.2777C204.896 26.2777 198.004 30.5956 192.835 39.2315C187.666 47.8674 185.057 60.7965 185.008 78.0189C185.008 89.6649 186.165 99.3865 188.478 107.183C190.841 114.931 194.164 120.754 198.447 124.653C202.73 128.502 207.751 130.426 213.511 130.426Z" fill="#2862FF"/>
<path d="M295.087 127.021V101.78L358.222 2.07261H379.931V37.0108H367.083L327.282 100.151V101.336H417V127.021H295.087ZM367.674 153.669V119.323L368.264 108.146V2.07261H398.244V153.669H367.674Z" fill="#2862FF"/>
</mask>
<g mask="url(#mask5_21_10)">
<rect x="11" y="124.6" width="406" height="32.4" fill="#FF0000"/>
</g>
<mask id="mask6_21_10" style="mask-type:alpha" maskUnits="userSpaceOnUse" x="27" y="0" width="406" height="157">
<path d="M27 127.021V101.78L90.1346 2.07261H111.844V37.0108H98.9956L59.195 100.151V101.336H148.913V127.021H27ZM99.5864 153.669V119.323L100.177 108.146V2.07261H130.157V153.669H99.5864Z" fill="#2862FF"/>
<path d="M229.511 157C216.81 156.951 205.881 153.817 196.725 147.599C187.618 141.381 180.603 132.375 175.68 120.581C170.807 108.787 168.395 94.5997 168.444 78.0189C168.444 61.4873 170.881 47.3986 175.754 35.7525C180.677 24.1064 187.692 15.2485 196.799 9.1787C205.955 3.05957 216.859 0 229.511 0C242.162 0 253.042 3.05957 262.149 9.1787C271.305 15.2978 278.345 24.1804 283.268 35.8265C288.19 47.4232 290.627 61.4873 290.578 78.0189C290.578 94.6491 288.116 108.861 283.194 120.655C278.32 132.449 271.33 141.455 262.223 147.673C253.116 153.891 242.212 157 229.511 157ZM229.511 130.426C238.175 130.426 245.091 126.059 250.26 117.324C255.429 108.59 257.989 95.488 257.94 78.0189C257.94 66.5208 256.758 56.9473 254.395 49.2984C252.082 41.6495 248.784 35.9005 244.501 32.0514C240.267 28.2023 235.27 26.2777 229.511 26.2777C220.896 26.2777 214.004 30.5956 208.835 39.2315C203.666 47.8674 201.057 60.7965 201.008 78.0189C201.008 89.6649 202.165 99.3865 204.478 107.183C206.841 114.931 210.164 120.754 214.447 124.653C218.73 128.502 223.751 130.426 229.511 130.426Z" fill="#2862FF"/>
<path d="M311.087 127.021V101.78L374.222 2.07261H395.931V37.0108H383.083L343.282 100.151V101.336H433V127.021H311.087ZM383.674 153.669V119.323L384.265 108.146V2.07261H414.244V153.669H383.674Z" fill="#2862FF"/>
</mask>
<g mask="url(#mask6_21_10)">
<rect x="27" y="93.4" width="406" height="31.4" fill="#FF0000"/>
</g>
<mask id="mask7_21_10" style="mask-type:alpha" maskUnits="userSpaceOnUse" x="22" y="0" width="406" height="157">
<path d="M22 127.021V101.78L85.1346 2.07261H106.844V37.0108H93.9956L54.195 100.151V101.336H143.913V127.021H22ZM94.5864 153.669V119.323L95.1771 108.146V2.07261H125.157V153.669H94.5864Z" fill="#2862FF"/>
<path d="M224.511 157C211.81 156.951 200.881 153.817 191.725 147.599C182.618 141.381 175.603 132.375 170.68 120.581C165.807 108.787 163.395 94.5997 163.444 78.0189C163.444 61.4873 165.881 47.3986 170.754 35.7525C175.677 24.1064 182.692 15.2485 191.799 9.1787C200.955 3.05957 211.859 0 224.511 0C237.162 0 248.042 3.05957 257.149 9.1787C266.305 15.2978 273.345 24.1804 278.268 35.8265C283.19 47.4232 285.627 61.4873 285.578 78.0189C285.578 94.6491 283.116 108.861 278.194 120.655C273.32 132.449 266.33 141.455 257.223 147.673C248.116 153.891 237.212 157 224.511 157ZM224.511 130.426C233.175 130.426 240.091 126.059 245.26 117.324C250.429 108.59 252.989 95.488 252.94 78.0189C252.94 66.5208 251.758 56.9473 249.395 49.2984C247.082 41.6495 243.784 35.9005 239.501 32.0514C235.267 28.2023 230.27 26.2777 224.511 26.2777C215.896 26.2777 209.004 30.5956 203.835 39.2315C198.666 47.8674 196.057 60.7965 196.008 78.0189C196.008 89.6649 197.165 99.3865 199.478 107.183C201.841 114.931 205.164 120.754 209.447 124.653C213.73 128.502 218.751 130.426 224.511 130.426Z" fill="#2862FF"/>
<path d="M306.087 127.021V101.78L369.222 2.07261H390.931V37.0108H378.083L338.282 100.151V101.336H428V127.021H306.087ZM378.674 153.669V119.323L379.265 108.146V2.07261H409.244V153.669H378.674Z" fill="#2862FF"/>
</mask>
<g mask="url(#mask7_21_10)">
<rect x="22" y="62" width="406" height="31.4" fill="#FF0000"/>
</g>
<mask id="mask8_21_10" style="mask-type:alpha" maskUnits="userSpaceOnUse" x="12" y="0" width="406" height="157">
<path d="M12 127.021V101.78L75.1346 2.07261H96.8441V37.0108H83.9956L44.195 100.151V101.336H133.913V127.021H12ZM84.5864 153.669V119.323L85.1771 108.146V2.07261H115.157V153.669H84.5864Z" fill="#2862FF"/>
<path d="M214.511 157C201.81 156.951 190.881 153.817 181.725 147.599C172.618 141.381 165.603 132.375 160.68 120.581C155.807 108.787 153.395 94.5997 153.444 78.0189C153.444 61.4873 155.881 47.3986 160.754 35.7525C165.677 24.1064 172.692 15.2485 181.799 9.1787C190.955 3.05957 201.859 0 214.511 0C227.162 0 238.042 3.05957 247.149 9.1787C256.305 15.2978 263.345 24.1804 268.268 35.8265C273.19 47.4232 275.627 61.4873 275.578 78.0189C275.578 94.6491 273.116 108.861 268.194 120.655C263.32 132.449 256.33 141.455 247.223 147.673C238.116 153.891 227.212 157 214.511 157ZM214.511 130.426C223.175 130.426 230.091 126.059 235.26 117.324C240.429 108.59 242.989 95.488 242.94 78.0189C242.94 66.5208 241.758 56.9473 239.395 49.2984C237.082 41.6495 233.784 35.9005 229.501 32.0514C225.267 28.2023 220.27 26.2777 214.511 26.2777C205.896 26.2777 199.004 30.5956 193.835 39.2315C188.666 47.8674 186.057 60.7965 186.008 78.0189C186.008 89.6649 187.165 99.3865 189.478 107.183C191.841 114.931 195.164 120.754 199.447 124.653C203.73 128.502 208.751 130.426 214.511 130.426Z" fill="#2862FF"/>
<path d="M296.087 127.021V101.78L359.222 2.07261H380.931V37.0108H368.083L328.282 100.151V101.336H418V127.021H296.087ZM368.674 153.669V119.323L369.265 108.146V2.07261H399.244V153.669H368.674Z" fill="#2862FF"/>
</mask>
<g mask="url(#mask8_21_10)">
<rect x="12" y="30.6" width="406" height="31.4" fill="#FF0000"/>
</g>
<mask id="mask9_21_10" style="mask-type:alpha" maskUnits="userSpaceOnUse" x="28" y="0" width="406" height="157">
<path d="M28 127.021V101.78L91.1346 2.07261H112.844V37.0108H99.9956L60.195 100.151V101.336H149.913V127.021H28ZM100.586 153.669V119.323L101.177 108.146V2.07261H131.157V153.669H100.586Z" fill="#2862FF"/>
<path d="M230.511 157C217.81 156.951 206.881 153.817 197.725 147.599C188.618 141.381 181.603 132.375 176.68 120.581C171.807 108.787 169.395 94.5997 169.444 78.0189C169.444 61.4873 171.881 47.3986 176.754 35.7525C181.677 24.1064 188.692 15.2485 197.799 9.1787C206.955 3.05957 217.859 0 230.511 0C243.162 0 254.042 3.05957 263.149 9.1787C272.305 15.2978 279.345 24.1804 284.268 35.8265C289.19 47.4232 291.627 61.4873 291.578 78.0189C291.578 94.6491 289.116 108.861 284.194 120.655C279.32 132.449 272.33 141.455 263.223 147.673C254.116 153.891 243.212 157 230.511 157ZM230.511 130.426C239.175 130.426 246.091 126.059 251.26 117.324C256.429 108.59 258.989 95.488 258.94 78.0189C258.94 66.5208 257.758 56.9473 255.395 49.2984C253.082 41.6495 249.784 35.9005 245.501 32.0514C241.267 28.2023 236.27 26.2777 230.511 26.2777C221.896 26.2777 215.004 30.5956 209.835 39.2315C204.666 47.8674 202.057 60.7965 202.008 78.0189C202.008 89.6649 203.165 99.3865 205.478 107.183C207.841 114.931 211.164 120.754 215.447 124.653C219.73 128.502 224.751 130.426 230.511 130.426Z" fill="#2862FF"/>
<path d="M312.087 127.021V101.78L375.222 2.07261H396.931V37.0108H384.083L344.282 100.151V101.336H434V127.021H312.087ZM384.674 153.669V119.323L385.265 108.146V2.07261H415.244V153.669H384.674Z" fill="#2862FF"/>
</mask>
<g mask="url(#mask9_21_10)">
<rect x="28" width="406" height="31.4" fill="#FF0000"/>
</g>
<mask id="mask10_21_10" style="mask-type:alpha" maskUnits="userSpaceOnUse" x="13" y="0" width="406" height="157">
<path d="M13 127.021V101.78L76.1346 2.07261H97.8441V37.0108H84.9956L45.195 100.151V101.336H134.913V127.021H13ZM85.5864 153.669V119.323L86.1771 108.146V2.07261H116.157V153.669H85.5864Z" fill="#2862FF"/>
<path d="M215.511 157C202.81 156.951 191.881 153.817 182.725 147.599C173.618 141.381 166.603 132.375 161.68 120.581C156.807 108.787 154.395 94.5997 154.444 78.0189C154.444 61.4873 156.881 47.3986 161.754 35.7525C166.677 24.1064 173.692 15.2485 182.799 9.1787C191.955 3.05957 202.859 0 215.511 0C228.162 0 239.042 3.05957 248.149 9.1787C257.305 15.2978 264.345 24.1804 269.268 35.8265C274.19 47.4232 276.627 61.4873 276.578 78.0189C276.578 94.6491 274.116 108.861 269.194 120.655C264.32 132.449 257.33 141.455 248.223 147.673C239.116 153.891 228.212 157 215.511 157ZM215.511 130.426C224.175 130.426 231.091 126.059 236.26 117.324C241.429 108.59 243.989 95.488 243.94 78.0189C243.94 66.5208 242.758 56.9473 240.395 49.2984C238.082 41.6495 234.783 35.9005 230.501 32.0514C226.267 28.2023 221.27 26.2777 215.511 26.2777C206.896 26.2777 200.004 30.5956 194.835 39.2315C189.666 47.8674 187.057 60.7965 187.008 78.0189C187.008 89.6649 188.165 99.3865 190.478 107.183C192.841 114.931 196.164 120.754 200.447 124.653C204.73 128.502 209.751 130.426 215.511 130.426Z" fill="#2862FF"/>
<path d="M297.087 127.021V101.78L360.222 2.07261H381.931V37.0108H369.083L329.282 100.151V101.336H419V127.021H297.087ZM369.674 153.669V119.323L370.264 108.146V2.07261H400.244V153.669H369.674Z" fill="#2862FF"/>
</mask>
<g mask="url(#mask10_21_10)">
<rect x="13" y="124.6" width="406" height="32.4" fill="black"/>
</g>
<mask id="mask11_21_10" style="mask-type:alpha" maskUnits="userSpaceOnUse" x="23" y="0" width="406" height="157">
<path d="M23 127.021V101.78L86.1346 2.07261H107.844V37.0108H94.9956L55.195 100.151V101.336H144.913V127.021H23ZM95.5864 153.669V119.323L96.1771 108.146V2.07261H126.157V153.669H95.5864Z" fill="#2862FF"/>
<path d="M225.511 157C212.81 156.951 201.881 153.817 192.725 147.599C183.618 141.381 176.603 132.375 171.68 120.581C166.807 108.787 164.395 94.5997 164.444 78.0189C164.444 61.4873 166.881 47.3986 171.754 35.7525C176.677 24.1064 183.692 15.2485 192.799 9.1787C201.955 3.05957 212.859 0 225.511 0C238.162 0 249.042 3.05957 258.149 9.1787C267.305 15.2978 274.345 24.1804 279.268 35.8265C284.19 47.4232 286.627 61.4873 286.578 78.0189C286.578 94.6491 284.116 108.861 279.194 120.655C274.32 132.449 267.33 141.455 258.223 147.673C249.116 153.891 238.212 157 225.511 157ZM225.511 130.426C234.175 130.426 241.091 126.059 246.26 117.324C251.429 108.59 253.989 95.488 253.94 78.0189C253.94 66.5208 252.758 56.9473 250.395 49.2984C248.082 41.6495 244.784 35.9005 240.501 32.0514C236.267 28.2023 231.27 26.2777 225.511 26.2777C216.896 26.2777 210.004 30.5956 204.835 39.2315C199.666 47.8674 197.057 60.7965 197.008 78.0189C197.008 89.6649 198.165 99.3865 200.478 107.183C202.841 114.931 206.164 120.754 210.447 124.653C214.73 128.502 219.751 130.426 225.511 130.426Z" fill="#2862FF"/>
<path d="M307.087 127.021V101.78L370.222 2.07261H391.931V37.0108H379.083L339.282 100.151V101.336H429V127.021H307.087ZM379.674 153.669V119.323L380.265 108.146V2.07261H410.244V153.669H379.674Z" fill="#2862FF"/>
</mask>
<g mask="url(#mask11_21_10)">
<rect x="23" y="93.4" width="406" height="31.4" fill="black"/>
</g>
<mask id="mask12_21_10" style="mask-type:alpha" maskUnits="userSpaceOnUse" x="19" y="0" width="406" height="157">
<path d="M19 127.021V101.78L82.1346 2.07261H103.844V37.0108H90.9956L51.195 100.151V101.336H140.913V127.021H19ZM91.5864 153.669V119.323L92.1771 108.146V2.07261H122.157V153.669H91.5864Z" fill="#2862FF"/>
<path d="M221.511 157C208.81 156.951 197.881 153.817 188.725 147.599C179.618 141.381 172.603 132.375 167.68 120.581C162.807 108.787 160.395 94.5997 160.444 78.0189C160.444 61.4873 162.881 47.3986 167.754 35.7525C172.677 24.1064 179.692 15.2485 188.799 9.1787C197.955 3.05957 208.859 0 221.511 0C234.162 0 245.042 3.05957 254.149 9.1787C263.305 15.2978 270.345 24.1804 275.268 35.8265C280.19 47.4232 282.627 61.4873 282.578 78.0189C282.578 94.6491 280.116 108.861 275.194 120.655C270.32 132.449 263.33 141.455 254.223 147.673C245.116 153.891 234.212 157 221.511 157ZM221.511 130.426C230.175 130.426 237.091 126.059 242.26 117.324C247.429 108.59 249.989 95.488 249.94 78.0189C249.94 66.5208 248.758 56.9473 246.395 49.2984C244.082 41.6495 240.784 35.9005 236.501 32.0514C232.267 28.2023 227.27 26.2777 221.511 26.2777C212.896 26.2777 206.004 30.5956 200.835 39.2315C195.666 47.8674 193.057 60.7965 193.008 78.0189C193.008 89.6649 194.165 99.3865 196.478 107.183C198.841 114.931 202.164 120.754 206.447 124.653C210.73 128.502 215.751 130.426 221.511 130.426Z" fill="#2862FF"/>
<path d="M303.087 127.021V101.78L366.222 2.07261H387.931V37.0108H375.083L335.282 100.151V101.336H425V127.021H303.087ZM375.674 153.669V119.323L376.265 108.146V2.07261H406.244V153.669H375.674Z" fill="#2862FF"/>
</mask>
<g mask="url(#mask12_21_10)">
<rect x="19" y="62" width="406" height="31.4" fill="black"/>
</g>
<mask id="mask13_21_10" style="mask-type:alpha" maskUnits="userSpaceOnUse" x="16" y="0" width="406" height="157">
<path d="M16 127.021V101.78L79.1346 2.07261H100.844V37.0108H87.9956L48.195 100.151V101.336H137.913V127.021H16ZM88.5864 153.669V119.323L89.1771 108.146V2.07261H119.157V153.669H88.5864Z" fill="#2862FF"/>
<path d="M218.511 157C205.81 156.951 194.881 153.817 185.725 147.599C176.618 141.381 169.603 132.375 164.68 120.581C159.807 108.787 157.395 94.5997 157.444 78.0189C157.444 61.4873 159.881 47.3986 164.754 35.7525C169.677 24.1064 176.692 15.2485 185.799 9.1787C194.955 3.05957 205.859 0 218.511 0C231.162 0 242.042 3.05957 251.149 9.1787C260.305 15.2978 267.345 24.1804 272.268 35.8265C277.19 47.4232 279.627 61.4873 279.578 78.0189C279.578 94.6491 277.116 108.861 272.194 120.655C267.32 132.449 260.33 141.455 251.223 147.673C242.116 153.891 231.212 157 218.511 157ZM218.511 130.426C227.175 130.426 234.091 126.059 239.26 117.324C244.429 108.59 246.989 95.488 246.94 78.0189C246.94 66.5208 245.758 56.9473 243.395 49.2984C241.082 41.6495 237.784 35.9005 233.501 32.0514C229.267 28.2023 224.27 26.2777 218.511 26.2777C209.896 26.2777 203.004 30.5956 197.835 39.2315C192.666 47.8674 190.057 60.7965 190.008 78.0189C190.008 89.6649 191.165 99.3865 193.478 107.183C195.841 114.931 199.164 120.754 203.447 124.653C207.73 128.502 212.751 130.426 218.511 130.426Z" fill="#2862FF"/>
<path d="M300.087 127.021V101.78L363.222 2.07261H384.931V37.0108H372.083L332.282 100.151V101.336H422V127.021H300.087ZM372.674 153.669V119.323L373.265 108.146V2.07261H403.244V153.669H372.674Z" fill="#2862FF"/>
</mask>
<g mask="url(#mask13_21_10)">
<rect x="16" y="30.6" width="406" height="31.4" fill="black"/>
</g>
<mask id="mask14_21_10" style="mask-type:alpha" maskUnits="userSpaceOnUse" x="23" y="0" width="406" height="157">
<path d="M23 127.021V101.78L86.1346 2.07261H107.844V37.0108H94.9956L55.195 100.151V101.336H144.913V127.021H23ZM95.5864 153.669V119.323L96.1771 108.146V2.07261H126.157V153.669H95.5864Z" fill="#2862FF"/>
<path d="M225.511 157C212.81 156.951 201.881 153.817 192.725 147.599C183.618 141.381 176.603 132.375 171.68 120.581C166.807 108.787 164.395 94.5997 164.444 78.0189C164.444 61.4873 166.881 47.3986 171.754 35.7525C176.677 24.1064 183.692 15.2485 192.799 9.1787C201.955 3.05957 212.859 0 225.511 0C238.162 0 249.042 3.05957 258.149 9.1787C267.305 15.2978 274.345 24.1804 279.268 35.8265C284.19 47.4232 286.627 61.4873 286.578 78.0189C286.578 94.6491 284.116 108.861 279.194 120.655C274.32 132.449 267.33 141.455 258.223 147.673C249.116 153.891 238.212 157 225.511 157ZM225.511 130.426C234.175 130.426 241.091 126.059 246.26 117.324C251.429 108.59 253.989 95.488 253.94 78.0189C253.94 66.5208 252.758 56.9473 250.395 49.2984C248.082 41.6495 244.784 35.9005 240.501 32.0514C236.267 28.2023 231.27 26.2777 225.511 26.2777C216.896 26.2777 210.004 30.5956 204.835 39.2315C199.666 47.8674 197.057 60.7965 197.008 78.0189C197.008 89.6649 198.165 99.3865 200.478 107.183C202.841 114.931 206.164 120.754 210.447 124.653C214.73 128.502 219.751 130.426 225.511 130.426Z" fill="#2862FF"/>
<path d="M307.087 127.021V101.78L370.222 2.07261H391.931V37.0108H379.083L339.282 100.151V101.336H429V127.021H307.087ZM379.674 153.669V119.323L380.265 108.146V2.07261H410.244V153.669H379.674Z" fill="#2862FF"/>
</mask>
<g mask="url(#mask14_21_10)">
<rect x="23" width="406" height="31.4" fill="black"/>
</g>
</svg>
