<svg width="453" height="178" viewBox="0 0 453 178" fill="none" xmlns="http://www.w3.org/2000/svg">
<mask id="mask0_21_12" style="mask-type:alpha" maskUnits="userSpaceOnUse" x="18" y="10" width="406" height="157">
<path d="M18 137.021V111.78L81.1346 12.0726H102.844V47.0108H89.9956L50.195 110.151V111.336H139.913V137.021H18ZM90.5864 163.669V129.323L91.1771 118.146V12.0726H121.157V163.669H90.5864Z" fill="#2862FF"/>
<path d="M220.511 167C207.81 166.951 196.881 163.817 187.725 157.599C178.618 151.381 171.603 142.375 166.68 130.581C161.807 118.787 159.395 104.6 159.444 88.0189C159.444 71.4873 161.881 57.3986 166.754 45.7525C171.677 34.1064 178.692 25.2485 187.799 19.1787C196.955 13.0596 207.859 10 220.511 10C233.162 10 244.042 13.0596 253.149 19.1787C262.305 25.2978 269.345 34.1804 274.268 45.8265C279.19 57.4232 281.627 71.4873 281.578 88.0189C281.578 104.649 279.116 118.861 274.194 130.655C269.32 142.449 262.33 151.455 253.223 157.673C244.116 163.891 233.212 167 220.511 167ZM220.511 140.426C229.175 140.426 236.091 136.059 241.26 127.324C246.429 118.59 248.989 105.488 248.94 88.0189C248.94 76.5208 247.758 66.9473 245.395 59.2984C243.082 51.6495 239.783 45.9005 235.501 42.0514C231.267 38.2023 226.27 36.2777 220.511 36.2777C211.896 36.2777 205.004 40.5956 199.835 49.2315C194.666 57.8674 192.057 70.7965 192.008 88.0189C192.008 99.6649 193.165 109.386 195.478 117.183C197.841 124.931 201.164 130.754 205.447 134.653C209.73 138.502 214.751 140.426 220.511 140.426Z" fill="#2862FF"/>
<path d="M302.087 137.021V111.78L365.222 12.0726H386.931V47.0108H374.083L334.282 110.151V111.336H424V137.021H302.087ZM374.674 163.669V129.323L375.264 118.146V12.0726H405.244V163.669H374.674Z" fill="#2862FF"/>
</mask>
<g mask="url(#mask0_21_12)">
<rect x="18" y="134.6" width="406" height="32.4" fill="#56EBFF"/>
</g>
<mask id="mask1_21_12" style="mask-type:alpha" maskUnits="userSpaceOnUse" x="47" y="10" width="406" height="157">
<path d="M47 137.021V111.78L110.135 12.0726H131.844V47.0108H118.996L79.195 110.151V111.336H168.913V137.021H47ZM119.586 163.669V129.323L120.177 118.146V12.0726H150.157V163.669H119.586Z" fill="#2862FF"/>
<path d="M249.511 167C236.81 166.951 225.881 163.817 216.725 157.599C207.618 151.381 200.603 142.375 195.68 130.581C190.807 118.787 188.395 104.6 188.444 88.0189C188.444 71.4873 190.881 57.3986 195.754 45.7525C200.677 34.1064 207.692 25.2485 216.799 19.1787C225.955 13.0596 236.859 10 249.511 10C262.162 10 273.042 13.0596 282.149 19.1787C291.305 25.2978 298.345 34.1804 303.268 45.8265C308.19 57.4232 310.627 71.4873 310.578 88.0189C310.578 104.649 308.116 118.861 303.194 130.655C298.32 142.449 291.33 151.455 282.223 157.673C273.116 163.891 262.212 167 249.511 167ZM249.511 140.426C258.175 140.426 265.091 136.059 270.26 127.324C275.429 118.59 277.989 105.488 277.94 88.0189C277.94 76.5208 276.758 66.9473 274.395 59.2984C272.082 51.6495 268.784 45.9005 264.501 42.0514C260.267 38.2023 255.27 36.2777 249.511 36.2777C240.896 36.2777 234.004 40.5956 228.835 49.2315C223.666 57.8674 221.057 70.7965 221.008 88.0189C221.008 99.6649 222.165 109.386 224.478 117.183C226.841 124.931 230.164 130.754 234.447 134.653C238.73 138.502 243.751 140.426 249.511 140.426Z" fill="#2862FF"/>
<path d="M331.087 137.021V111.78L394.222 12.0726H415.931V47.0108H403.083L363.282 110.151V111.336H453V137.021H331.087ZM403.674 163.669V129.323L404.265 118.146V12.0726H434.244V163.669H403.674Z" fill="#2862FF"/>
</mask>
<g mask="url(#mask1_21_12)">
<rect x="47" y="103.4" width="406" height="31.4" fill="#56EBFF"/>
</g>
<mask id="mask2_21_12" style="mask-type:alpha" maskUnits="userSpaceOnUse" x="27" y="10" width="406" height="157">
<path d="M27 137.021V111.78L90.1346 12.0726H111.844V47.0108H98.9956L59.195 110.151V111.336H148.913V137.021H27ZM99.5864 163.669V129.323L100.177 118.146V12.0726H130.157V163.669H99.5864Z" fill="#2862FF"/>
<path d="M229.511 167C216.81 166.951 205.881 163.817 196.725 157.599C187.618 151.381 180.603 142.375 175.68 130.581C170.807 118.787 168.395 104.6 168.444 88.0189C168.444 71.4873 170.881 57.3986 175.754 45.7525C180.677 34.1064 187.692 25.2485 196.799 19.1787C205.955 13.0596 216.859 10 229.511 10C242.162 10 253.042 13.0596 262.149 19.1787C271.305 25.2978 278.345 34.1804 283.268 45.8265C288.19 57.4232 290.627 71.4873 290.578 88.0189C290.578 104.649 288.116 118.861 283.194 130.655C278.32 142.449 271.33 151.455 262.223 157.673C253.116 163.891 242.212 167 229.511 167ZM229.511 140.426C238.175 140.426 245.091 136.059 250.26 127.324C255.429 118.59 257.989 105.488 257.94 88.0189C257.94 76.5208 256.758 66.9473 254.395 59.2984C252.082 51.6495 248.784 45.9005 244.501 42.0514C240.267 38.2023 235.27 36.2777 229.511 36.2777C220.896 36.2777 214.004 40.5956 208.835 49.2315C203.666 57.8674 201.057 70.7965 201.008 88.0189C201.008 99.6649 202.165 109.386 204.478 117.183C206.841 124.931 210.164 130.754 214.447 134.653C218.73 138.502 223.751 140.426 229.511 140.426Z" fill="#2862FF"/>
<path d="M311.087 137.021V111.78L374.222 12.0726H395.931V47.0108H383.083L343.282 110.151V111.336H433V137.021H311.087ZM383.674 163.669V129.323L384.265 118.146V12.0726H414.244V163.669H383.674Z" fill="#2862FF"/>
</mask>
<g mask="url(#mask2_21_12)">
<rect x="27" y="72" width="406" height="31.4" fill="#56EBFF"/>
</g>
<mask id="mask3_21_12" style="mask-type:alpha" maskUnits="userSpaceOnUse" x="8" y="21" width="406" height="157">
<path d="M8 148.021V122.78L71.1346 23.0726H92.8441V58.0108H79.9956L40.195 121.151V122.336H129.913V148.021H8ZM80.5864 174.669V140.323L81.1771 129.146V23.0726H111.157V174.669H80.5864Z" fill="#2862FF"/>
<path d="M210.511 178C197.81 177.951 186.881 174.817 177.725 168.599C168.618 162.381 161.603 153.375 156.68 141.581C151.807 129.787 149.395 115.6 149.444 99.0189C149.444 82.4873 151.881 68.3986 156.754 56.7525C161.677 45.1064 168.692 36.2485 177.799 30.1787C186.955 24.0596 197.859 21 210.511 21C223.162 21 234.042 24.0596 243.149 30.1787C252.305 36.2978 259.345 45.1804 264.268 56.8265C269.19 68.4232 271.627 82.4873 271.578 99.0189C271.578 115.649 269.116 129.861 264.194 141.655C259.32 153.449 252.33 162.455 243.223 168.673C234.116 174.891 223.212 178 210.511 178ZM210.511 151.426C219.175 151.426 226.091 147.059 231.26 138.324C236.429 129.59 238.989 116.488 238.94 99.0189C238.94 87.5208 237.758 77.9473 235.395 70.2984C233.082 62.6495 229.784 56.9005 225.501 53.0514C221.267 49.2023 216.27 47.2777 210.511 47.2777C201.896 47.2777 195.004 51.5956 189.835 60.2315C184.666 68.8674 182.057 81.7965 182.008 99.0189C182.008 110.665 183.165 120.386 185.478 128.183C187.841 135.931 191.164 141.754 195.447 145.653C199.73 149.502 204.751 151.426 210.511 151.426Z" fill="#2862FF"/>
<path d="M292.087 148.021V122.78L355.222 23.0726H376.931V58.0108H364.083L324.282 121.151V122.336H414V148.021H292.087ZM364.674 174.669V140.323L365.265 129.146V23.0726H395.244V174.669H364.674Z" fill="#2862FF"/>
</mask>
<g mask="url(#mask3_21_12)">
<rect x="8" y="51.6" width="406" height="31.4" fill="#56EBFF"/>
</g>
<mask id="mask4_21_12" style="mask-type:alpha" maskUnits="userSpaceOnUse" x="0" y="10" width="406" height="157">
<path d="M0 137.021V111.78L63.1346 12.0726H84.8441V47.0108H71.9956L32.195 110.151V111.336H121.913V137.021H0ZM72.5864 163.669V129.323L73.1771 118.146V12.0726H103.157V163.669H72.5864Z" fill="#2862FF"/>
<path d="M202.511 167C189.81 166.951 178.881 163.817 169.725 157.599C160.618 151.381 153.603 142.375 148.68 130.581C143.807 118.787 141.395 104.6 141.444 88.0189C141.444 71.4873 143.881 57.3986 148.754 45.7525C153.677 34.1064 160.692 25.2485 169.799 19.1787C178.955 13.0596 189.859 10 202.511 10C215.162 10 226.042 13.0596 235.149 19.1787C244.305 25.2978 251.345 34.1804 256.268 45.8265C261.19 57.4232 263.627 71.4873 263.578 88.0189C263.578 104.649 261.116 118.861 256.194 130.655C251.32 142.449 244.33 151.455 235.223 157.673C226.116 163.891 215.212 167 202.511 167ZM202.511 140.426C211.175 140.426 218.091 136.059 223.26 127.324C228.429 118.59 230.989 105.488 230.94 88.0189C230.94 76.5208 229.758 66.9473 227.395 59.2984C225.082 51.6495 221.784 45.9005 217.501 42.0514C213.267 38.2023 208.27 36.2777 202.511 36.2777C193.896 36.2777 187.004 40.5956 181.835 49.2315C176.666 57.8674 174.057 70.7965 174.008 88.0189C174.008 99.6649 175.165 109.386 177.478 117.183C179.841 124.931 183.164 130.754 187.447 134.653C191.73 138.502 196.751 140.426 202.511 140.426Z" fill="#2862FF"/>
<path d="M284.087 137.021V111.78L347.222 12.0726H368.931V47.0108H356.083L316.282 110.151V111.336H406V137.021H284.087ZM356.674 163.669V129.323L357.265 118.146V12.0726H387.244V163.669H356.674Z" fill="#2862FF"/>
</mask>
<g mask="url(#mask4_21_12)">
<rect y="10" width="406" height="31.4" fill="#56EBFF"/>
</g>
<mask id="mask5_21_12" style="mask-type:alpha" maskUnits="userSpaceOnUse" x="14" y="10" width="406" height="157">
<path d="M14 137.021V111.78L77.1346 12.0726H98.8441V47.0108H85.9956L46.195 110.151V111.336H135.913V137.021H14ZM86.5864 163.669V129.323L87.1771 118.146V12.0726H117.157V163.669H86.5864Z" fill="#2862FF"/>
<path d="M216.511 167C203.81 166.951 192.881 163.817 183.725 157.599C174.618 151.381 167.603 142.375 162.68 130.581C157.807 118.787 155.395 104.6 155.444 88.0189C155.444 71.4873 157.881 57.3986 162.754 45.7525C167.677 34.1064 174.692 25.2485 183.799 19.1787C192.955 13.0596 203.859 10 216.511 10C229.162 10 240.042 13.0596 249.149 19.1787C258.305 25.2978 265.345 34.1804 270.268 45.8265C275.19 57.4232 277.627 71.4873 277.578 88.0189C277.578 104.649 275.116 118.861 270.194 130.655C265.32 142.449 258.33 151.455 249.223 157.673C240.116 163.891 229.212 167 216.511 167ZM216.511 140.426C225.175 140.426 232.091 136.059 237.26 127.324C242.429 118.59 244.989 105.488 244.94 88.0189C244.94 76.5208 243.758 66.9473 241.395 59.2984C239.082 51.6495 235.783 45.9005 231.501 42.0514C227.267 38.2023 222.27 36.2777 216.511 36.2777C207.896 36.2777 201.004 40.5956 195.835 49.2315C190.666 57.8674 188.057 70.7965 188.008 88.0189C188.008 99.6649 189.165 109.386 191.478 117.183C193.841 124.931 197.164 130.754 201.447 134.653C205.73 138.502 210.751 140.426 216.511 140.426Z" fill="#2862FF"/>
<path d="M298.087 137.021V111.78L361.222 12.0726H382.931V47.0108H370.083L330.282 110.151V111.336H420V137.021H298.087ZM370.674 163.669V129.323L371.264 118.146V12.0726H401.244V163.669H370.674Z" fill="#2862FF"/>
</mask>
<g mask="url(#mask5_21_12)">
<rect x="14" y="134.6" width="406" height="32.4" fill="#FF0000"/>
</g>
<mask id="mask6_21_12" style="mask-type:alpha" maskUnits="userSpaceOnUse" x="35" y="10" width="406" height="157">
<path d="M35 137.021V111.78L98.1346 12.0726H119.844V47.0108H106.996L67.195 110.151V111.336H156.913V137.021H35ZM107.586 163.669V129.323L108.177 118.146V12.0726H138.157V163.669H107.586Z" fill="#2862FF"/>
<path d="M237.511 167C224.81 166.951 213.881 163.817 204.725 157.599C195.618 151.381 188.603 142.375 183.68 130.581C178.807 118.787 176.395 104.6 176.444 88.0189C176.444 71.4873 178.881 57.3986 183.754 45.7525C188.677 34.1064 195.692 25.2485 204.799 19.1787C213.955 13.0596 224.859 10 237.511 10C250.162 10 261.042 13.0596 270.149 19.1787C279.305 25.2978 286.345 34.1804 291.268 45.8265C296.19 57.4232 298.627 71.4873 298.578 88.0189C298.578 104.649 296.116 118.861 291.194 130.655C286.32 142.449 279.33 151.455 270.223 157.673C261.116 163.891 250.212 167 237.511 167ZM237.511 140.426C246.175 140.426 253.091 136.059 258.26 127.324C263.429 118.59 265.989 105.488 265.94 88.0189C265.94 76.5208 264.758 66.9473 262.395 59.2984C260.082 51.6495 256.784 45.9005 252.501 42.0514C248.267 38.2023 243.27 36.2777 237.511 36.2777C228.896 36.2777 222.004 40.5956 216.835 49.2315C211.666 57.8674 209.057 70.7965 209.008 88.0189C209.008 99.6649 210.165 109.386 212.478 117.183C214.841 124.931 218.164 130.754 222.447 134.653C226.73 138.502 231.751 140.426 237.511 140.426Z" fill="#2862FF"/>
<path d="M319.087 137.021V111.78L382.222 12.0726H403.931V47.0108H391.083L351.282 110.151V111.336H441V137.021H319.087ZM391.674 163.669V129.323L392.265 118.146V12.0726H422.244V163.669H391.674Z" fill="#2862FF"/>
</mask>
<g mask="url(#mask6_21_12)">
<rect x="35" y="103.4" width="406" height="31.4" fill="#FF0000"/>
</g>
<mask id="mask7_21_12" style="mask-type:alpha" maskUnits="userSpaceOnUse" x="25" y="10" width="406" height="157">
<path d="M25 137.021V111.78L88.1346 12.0726H109.844V47.0108H96.9956L57.195 110.151V111.336H146.913V137.021H25ZM97.5864 163.669V129.323L98.1771 118.146V12.0726H128.157V163.669H97.5864Z" fill="#2862FF"/>
<path d="M227.511 167C214.81 166.951 203.881 163.817 194.725 157.599C185.618 151.381 178.603 142.375 173.68 130.581C168.807 118.787 166.395 104.6 166.444 88.0189C166.444 71.4873 168.881 57.3986 173.754 45.7525C178.677 34.1064 185.692 25.2485 194.799 19.1787C203.955 13.0596 214.859 10 227.511 10C240.162 10 251.042 13.0596 260.149 19.1787C269.305 25.2978 276.345 34.1804 281.268 45.8265C286.19 57.4232 288.627 71.4873 288.578 88.0189C288.578 104.649 286.116 118.861 281.194 130.655C276.32 142.449 269.33 151.455 260.223 157.673C251.116 163.891 240.212 167 227.511 167ZM227.511 140.426C236.175 140.426 243.091 136.059 248.26 127.324C253.429 118.59 255.989 105.488 255.94 88.0189C255.94 76.5208 254.758 66.9473 252.395 59.2984C250.082 51.6495 246.784 45.9005 242.501 42.0514C238.267 38.2023 233.27 36.2777 227.511 36.2777C218.896 36.2777 212.004 40.5956 206.835 49.2315C201.666 57.8674 199.057 70.7965 199.008 88.0189C199.008 99.6649 200.165 109.386 202.478 117.183C204.841 124.931 208.164 130.754 212.447 134.653C216.73 138.502 221.751 140.426 227.511 140.426Z" fill="#2862FF"/>
<path d="M309.087 137.021V111.78L372.222 12.0726H393.931V47.0108H381.083L341.282 110.151V111.336H431V137.021H309.087ZM381.674 163.669V129.323L382.265 118.146V12.0726H412.244V163.669H381.674Z" fill="#2862FF"/>
</mask>
<g mask="url(#mask7_21_12)">
<rect x="25" y="72" width="406" height="31.4" fill="#FF0000"/>
</g>
<mask id="mask8_21_12" style="mask-type:alpha" maskUnits="userSpaceOnUse" x="10" y="10" width="406" height="157">
<path d="M10 137.021V111.78L73.1346 12.0726H94.8441V47.0108H81.9956L42.195 110.151V111.336H131.913V137.021H10ZM82.5864 163.669V129.323L83.1771 118.146V12.0726H113.157V163.669H82.5864Z" fill="#2862FF"/>
<path d="M212.511 167C199.81 166.951 188.881 163.817 179.725 157.599C170.618 151.381 163.603 142.375 158.68 130.581C153.807 118.787 151.395 104.6 151.444 88.0189C151.444 71.4873 153.881 57.3986 158.754 45.7525C163.677 34.1064 170.692 25.2485 179.799 19.1787C188.955 13.0596 199.859 10 212.511 10C225.162 10 236.042 13.0596 245.149 19.1787C254.305 25.2978 261.345 34.1804 266.268 45.8265C271.19 57.4232 273.627 71.4873 273.578 88.0189C273.578 104.649 271.116 118.861 266.194 130.655C261.32 142.449 254.33 151.455 245.223 157.673C236.116 163.891 225.212 167 212.511 167ZM212.511 140.426C221.175 140.426 228.091 136.059 233.26 127.324C238.429 118.59 240.989 105.488 240.94 88.0189C240.94 76.5208 239.758 66.9473 237.395 59.2984C235.082 51.6495 231.784 45.9005 227.501 42.0514C223.267 38.2023 218.27 36.2777 212.511 36.2777C203.896 36.2777 197.004 40.5956 191.835 49.2315C186.666 57.8674 184.057 70.7965 184.008 88.0189C184.008 99.6649 185.165 109.386 187.478 117.183C189.841 124.931 193.164 130.754 197.447 134.653C201.73 138.502 206.751 140.426 212.511 140.426Z" fill="#2862FF"/>
<path d="M294.087 137.021V111.78L357.222 12.0726H378.931V47.0108H366.083L326.282 110.151V111.336H416V137.021H294.087ZM366.674 163.669V129.323L367.265 118.146V12.0726H397.244V163.669H366.674Z" fill="#2862FF"/>
</mask>
<g mask="url(#mask8_21_12)">
<rect x="10" y="40.6" width="406" height="31.4" fill="#FF0000"/>
</g>
<mask id="mask9_21_12" style="mask-type:alpha" maskUnits="userSpaceOnUse" x="16" y="10" width="406" height="157">
<path d="M16 137.021V111.78L79.1346 12.0726H100.844V47.0108H87.9956L48.195 110.151V111.336H137.913V137.021H16ZM88.5864 163.669V129.323L89.1771 118.146V12.0726H119.157V163.669H88.5864Z" fill="#2862FF"/>
<path d="M218.511 167C205.81 166.951 194.881 163.817 185.725 157.599C176.618 151.381 169.603 142.375 164.68 130.581C159.807 118.787 157.395 104.6 157.444 88.0189C157.444 71.4873 159.881 57.3986 164.754 45.7525C169.677 34.1064 176.692 25.2485 185.799 19.1787C194.955 13.0596 205.859 10 218.511 10C231.162 10 242.042 13.0596 251.149 19.1787C260.305 25.2978 267.345 34.1804 272.268 45.8265C277.19 57.4232 279.627 71.4873 279.578 88.0189C279.578 104.649 277.116 118.861 272.194 130.655C267.32 142.449 260.33 151.455 251.223 157.673C242.116 163.891 231.212 167 218.511 167ZM218.511 140.426C227.175 140.426 234.091 136.059 239.26 127.324C244.429 118.59 246.989 105.488 246.94 88.0189C246.94 76.5208 245.758 66.9473 243.395 59.2984C241.082 51.6495 237.784 45.9005 233.501 42.0514C229.267 38.2023 224.27 36.2777 218.511 36.2777C209.896 36.2777 203.004 40.5956 197.835 49.2315C192.666 57.8674 190.057 70.7965 190.008 88.0189C190.008 99.6649 191.165 109.386 193.478 117.183C195.841 124.931 199.164 130.754 203.447 134.653C207.73 138.502 212.751 140.426 218.511 140.426Z" fill="#2862FF"/>
<path d="M300.087 137.021V111.78L363.222 12.0726H384.931V47.0108H372.083L332.282 110.151V111.336H422V137.021H300.087ZM372.674 163.669V129.323L373.265 118.146V12.0726H403.244V163.669H372.674Z" fill="#2862FF"/>
</mask>
<g mask="url(#mask9_21_12)">
<rect x="16" y="10" width="406" height="31.4" fill="#FF0000"/>
</g>
<mask id="mask10_21_12" style="mask-type:alpha" maskUnits="userSpaceOnUse" x="31" y="20" width="406" height="157">
<path d="M31 147.021V121.78L94.1346 22.0726H115.844V57.0108H102.996L63.195 120.151V121.336H152.913V147.021H31ZM103.586 173.669V139.323L104.177 128.146V22.0726H134.157V173.669H103.586Z" fill="#2862FF"/>
<path d="M233.511 177C220.81 176.951 209.881 173.817 200.725 167.599C191.618 161.381 184.603 152.375 179.68 140.581C174.807 128.787 172.395 114.6 172.444 98.0189C172.444 81.4873 174.881 67.3986 179.754 55.7525C184.677 44.1064 191.692 35.2485 200.799 29.1787C209.955 23.0596 220.859 20 233.511 20C246.162 20 257.042 23.0596 266.149 29.1787C275.305 35.2978 282.345 44.1804 287.268 55.8265C292.19 67.4232 294.627 81.4873 294.578 98.0189C294.578 114.649 292.116 128.861 287.194 140.655C282.32 152.449 275.33 161.455 266.223 167.673C257.116 173.891 246.212 177 233.511 177ZM233.511 150.426C242.175 150.426 249.091 146.059 254.26 137.324C259.429 128.59 261.989 115.488 261.94 98.0189C261.94 86.5208 260.758 76.9473 258.395 69.2984C256.082 61.6495 252.783 55.9005 248.501 52.0514C244.267 48.2023 239.27 46.2777 233.511 46.2777C224.896 46.2777 218.004 50.5956 212.835 59.2315C207.666 67.8674 205.057 80.7965 205.008 98.0189C205.008 109.665 206.165 119.386 208.478 127.183C210.841 134.931 214.164 140.754 218.447 144.653C222.73 148.502 227.751 150.426 233.511 150.426Z" fill="#2862FF"/>
<path d="M315.087 147.021V121.78L378.222 22.0726H399.931V57.0108H387.083L347.282 120.151V121.336H437V147.021H315.087ZM387.674 173.669V139.323L388.264 128.146V22.0726H418.244V173.669H387.674Z" fill="#2862FF"/>
</mask>
<g mask="url(#mask10_21_12)">
<rect x="31" y="144.6" width="406" height="32.4" fill="black"/>
</g>
<mask id="mask11_21_12" style="mask-type:alpha" maskUnits="userSpaceOnUse" x="21" y="10" width="406" height="157">
<path d="M21 137.021V111.78L84.1346 12.0726H105.844V47.0108H92.9956L53.195 110.151V111.336H142.913V137.021H21ZM93.5864 163.669V129.323L94.1771 118.146V12.0726H124.157V163.669H93.5864Z" fill="#2862FF"/>
<path d="M223.511 167C210.81 166.951 199.881 163.817 190.725 157.599C181.618 151.381 174.603 142.375 169.68 130.581C164.807 118.787 162.395 104.6 162.444 88.0189C162.444 71.4873 164.881 57.3986 169.754 45.7525C174.677 34.1064 181.692 25.2485 190.799 19.1787C199.955 13.0596 210.859 10 223.511 10C236.162 10 247.042 13.0596 256.149 19.1787C265.305 25.2978 272.345 34.1804 277.268 45.8265C282.19 57.4232 284.627 71.4873 284.578 88.0189C284.578 104.649 282.116 118.861 277.194 130.655C272.32 142.449 265.33 151.455 256.223 157.673C247.116 163.891 236.212 167 223.511 167ZM223.511 140.426C232.175 140.426 239.091 136.059 244.26 127.324C249.429 118.59 251.989 105.488 251.94 88.0189C251.94 76.5208 250.758 66.9473 248.395 59.2984C246.082 51.6495 242.784 45.9005 238.501 42.0514C234.267 38.2023 229.27 36.2777 223.511 36.2777C214.896 36.2777 208.004 40.5956 202.835 49.2315C197.666 57.8674 195.057 70.7965 195.008 88.0189C195.008 99.6649 196.165 109.386 198.478 117.183C200.841 124.931 204.164 130.754 208.447 134.653C212.73 138.502 217.751 140.426 223.511 140.426Z" fill="#2862FF"/>
<path d="M305.087 137.021V111.78L368.222 12.0726H389.931V47.0108H377.083L337.282 110.151V111.336H427V137.021H305.087ZM377.674 163.669V129.323L378.265 118.146V12.0726H408.244V163.669H377.674Z" fill="#2862FF"/>
</mask>
<g mask="url(#mask11_21_12)">
<rect x="21" y="103.4" width="406" height="31.4" fill="black"/>
</g>
<mask id="mask12_21_12" style="mask-type:alpha" maskUnits="userSpaceOnUse" x="37" y="10" width="406" height="157">
<path d="M37 137.021V111.78L100.135 12.0726H121.844V47.0108H108.996L69.195 110.151V111.336H158.913V137.021H37ZM109.586 163.669V129.323L110.177 118.146V12.0726H140.157V163.669H109.586Z" fill="#2862FF"/>
<path d="M239.511 167C226.81 166.951 215.881 163.817 206.725 157.599C197.618 151.381 190.603 142.375 185.68 130.581C180.807 118.787 178.395 104.6 178.444 88.0189C178.444 71.4873 180.881 57.3986 185.754 45.7525C190.677 34.1064 197.692 25.2485 206.799 19.1787C215.955 13.0596 226.859 10 239.511 10C252.162 10 263.042 13.0596 272.149 19.1787C281.305 25.2978 288.345 34.1804 293.268 45.8265C298.19 57.4232 300.627 71.4873 300.578 88.0189C300.578 104.649 298.116 118.861 293.194 130.655C288.32 142.449 281.33 151.455 272.223 157.673C263.116 163.891 252.212 167 239.511 167ZM239.511 140.426C248.175 140.426 255.091 136.059 260.26 127.324C265.429 118.59 267.989 105.488 267.94 88.0189C267.94 76.5208 266.758 66.9473 264.395 59.2984C262.082 51.6495 258.784 45.9005 254.501 42.0514C250.267 38.2023 245.27 36.2777 239.511 36.2777C230.896 36.2777 224.004 40.5956 218.835 49.2315C213.666 57.8674 211.057 70.7965 211.008 88.0189C211.008 99.6649 212.165 109.386 214.478 117.183C216.841 124.931 220.164 130.754 224.447 134.653C228.73 138.502 233.751 140.426 239.511 140.426Z" fill="#2862FF"/>
<path d="M321.087 137.021V111.78L384.222 12.0726H405.931V47.0108H393.083L353.282 110.151V111.336H443V137.021H321.087ZM393.674 163.669V129.323L394.265 118.146V12.0726H424.244V163.669H393.674Z" fill="#2862FF"/>
</mask>
<g mask="url(#mask12_21_12)">
<rect x="37" y="72" width="406" height="31.4" fill="black"/>
</g>
<mask id="mask13_21_12" style="mask-type:alpha" maskUnits="userSpaceOnUse" x="4" y="10" width="406" height="157">
<path d="M4 137.021V111.78L67.1346 12.0726H88.8441V47.0108H75.9956L36.195 110.151V111.336H125.913V137.021H4ZM76.5864 163.669V129.323L77.1771 118.146V12.0726H107.157V163.669H76.5864Z" fill="#2862FF"/>
<path d="M206.511 167C193.81 166.951 182.881 163.817 173.725 157.599C164.618 151.381 157.603 142.375 152.68 130.581C147.807 118.787 145.395 104.6 145.444 88.0189C145.444 71.4873 147.881 57.3986 152.754 45.7525C157.677 34.1064 164.692 25.2485 173.799 19.1787C182.955 13.0596 193.859 10 206.511 10C219.162 10 230.042 13.0596 239.149 19.1787C248.305 25.2978 255.345 34.1804 260.268 45.8265C265.19 57.4232 267.627 71.4873 267.578 88.0189C267.578 104.649 265.116 118.861 260.194 130.655C255.32 142.449 248.33 151.455 239.223 157.673C230.116 163.891 219.212 167 206.511 167ZM206.511 140.426C215.175 140.426 222.091 136.059 227.26 127.324C232.429 118.59 234.989 105.488 234.94 88.0189C234.94 76.5208 233.758 66.9473 231.395 59.2984C229.082 51.6495 225.784 45.9005 221.501 42.0514C217.267 38.2023 212.27 36.2777 206.511 36.2777C197.896 36.2777 191.004 40.5956 185.835 49.2315C180.666 57.8674 178.057 70.7965 178.008 88.0189C178.008 99.6649 179.165 109.386 181.478 117.183C183.841 124.931 187.164 130.754 191.447 134.653C195.73 138.502 200.751 140.426 206.511 140.426Z" fill="#2862FF"/>
<path d="M288.087 137.021V111.78L351.222 12.0726H372.931V47.0108H360.083L320.282 110.151V111.336H410V137.021H288.087ZM360.674 163.669V129.323L361.265 118.146V12.0726H391.244V163.669H360.674Z" fill="#2862FF"/>
</mask>
<g mask="url(#mask13_21_12)">
<rect x="4" y="40.6" width="406" height="31.4" fill="black"/>
</g>
<mask id="mask14_21_12" style="mask-type:alpha" maskUnits="userSpaceOnUse" x="41" y="0" width="406" height="157">
<path d="M41 127.021V101.78L104.135 2.07261H125.844V37.0108H112.996L73.195 100.151V101.336H162.913V127.021H41ZM113.586 153.669V119.323L114.177 108.146V2.07261H144.157V153.669H113.586Z" fill="#2862FF"/>
<path d="M243.511 157C230.81 156.951 219.881 153.817 210.725 147.599C201.618 141.381 194.603 132.375 189.68 120.581C184.807 108.787 182.395 94.5997 182.444 78.0189C182.444 61.4873 184.881 47.3986 189.754 35.7525C194.677 24.1064 201.692 15.2485 210.799 9.1787C219.955 3.05957 230.859 0 243.511 0C256.162 0 267.042 3.05957 276.149 9.1787C285.305 15.2978 292.345 24.1804 297.268 35.8265C302.19 47.4232 304.627 61.4873 304.578 78.0189C304.578 94.6491 302.116 108.861 297.194 120.655C292.32 132.449 285.33 141.455 276.223 147.673C267.116 153.891 256.212 157 243.511 157ZM243.511 130.426C252.175 130.426 259.091 126.059 264.26 117.324C269.429 108.59 271.989 95.488 271.94 78.0189C271.94 66.5208 270.758 56.9473 268.395 49.2984C266.082 41.6495 262.784 35.9005 258.501 32.0514C254.267 28.2023 249.27 26.2777 243.511 26.2777C234.896 26.2777 228.004 30.5956 222.835 39.2315C217.666 47.8674 215.057 60.7965 215.008 78.0189C215.008 89.6649 216.165 99.3865 218.478 107.183C220.841 114.931 224.164 120.754 228.447 124.653C232.73 128.502 237.751 130.426 243.511 130.426Z" fill="#2862FF"/>
<path d="M325.087 127.021V101.78L388.222 2.07261H409.931V37.0108H397.083L357.282 100.151V101.336H447V127.021H325.087ZM397.674 153.669V119.323L398.265 108.146V2.07261H428.244V153.669H397.674Z" fill="#2862FF"/>
</mask>
<g mask="url(#mask14_21_12)">
<rect x="41" width="406" height="31.4" fill="black"/>
</g>
</svg>
