<svg width="452" height="168" viewBox="0 0 452 168" fill="none" xmlns="http://www.w3.org/2000/svg">
<mask id="mask0_21_14" style="mask-type:alpha" maskUnits="userSpaceOnUse" x="27" y="0" width="406" height="157">
<path d="M27 127.021V101.78L90.1346 2.07261H111.844V37.0108H98.9956L59.195 100.151V101.336H148.913V127.021H27ZM99.5864 153.669V119.323L100.177 108.146V2.07261H130.157V153.669H99.5864Z" fill="#2862FF"/>
<path d="M229.511 157C216.81 156.951 205.881 153.817 196.725 147.599C187.618 141.381 180.603 132.375 175.68 120.581C170.807 108.787 168.395 94.5997 168.444 78.0189C168.444 61.4873 170.881 47.3986 175.754 35.7525C180.677 24.1064 187.692 15.2485 196.799 9.1787C205.955 3.05957 216.859 0 229.511 0C242.162 0 253.042 3.05957 262.149 9.1787C271.305 15.2978 278.345 24.1804 283.268 35.8265C288.19 47.4232 290.627 61.4873 290.578 78.0189C290.578 94.6491 288.116 108.861 283.194 120.655C278.32 132.449 271.33 141.455 262.223 147.673C253.116 153.891 242.212 157 229.511 157ZM229.511 130.426C238.175 130.426 245.091 126.059 250.26 117.324C255.429 108.59 257.989 95.488 257.94 78.0189C257.94 66.5208 256.758 56.9473 254.395 49.2984C252.082 41.6495 248.783 35.9005 244.501 32.0514C240.267 28.2023 235.27 26.2777 229.511 26.2777C220.896 26.2777 214.004 30.5956 208.835 39.2315C203.666 47.8674 201.057 60.7965 201.008 78.0189C201.008 89.6649 202.165 99.3865 204.478 107.183C206.841 114.931 210.164 120.754 214.447 124.653C218.73 128.502 223.751 130.426 229.511 130.426Z" fill="#2862FF"/>
<path d="M311.087 127.021V101.78L374.222 2.07261H395.931V37.0108H383.083L343.282 100.151V101.336H433V127.021H311.087ZM383.674 153.669V119.323L384.264 108.146V2.07261H414.244V153.669H383.674Z" fill="#2862FF"/>
</mask>
<g mask="url(#mask0_21_14)">
<rect x="27" y="124.6" width="406" height="32.4" fill="#56EBFF"/>
</g>
<mask id="mask1_21_14" style="mask-type:alpha" maskUnits="userSpaceOnUse" x="9" y="0" width="406" height="157">
<path d="M9 127.021V101.78L72.1346 2.07261H93.8441V37.0108H80.9956L41.195 100.151V101.336H130.913V127.021H9ZM81.5864 153.669V119.323L82.1771 108.146V2.07261H112.157V153.669H81.5864Z" fill="#2862FF"/>
<path d="M211.511 157C198.81 156.951 187.881 153.817 178.725 147.599C169.618 141.381 162.603 132.375 157.68 120.581C152.807 108.787 150.395 94.5997 150.444 78.0189C150.444 61.4873 152.881 47.3986 157.754 35.7525C162.677 24.1064 169.692 15.2485 178.799 9.1787C187.955 3.05957 198.859 0 211.511 0C224.162 0 235.042 3.05957 244.149 9.1787C253.305 15.2978 260.345 24.1804 265.268 35.8265C270.19 47.4232 272.627 61.4873 272.578 78.0189C272.578 94.6491 270.116 108.861 265.194 120.655C260.32 132.449 253.33 141.455 244.223 147.673C235.116 153.891 224.212 157 211.511 157ZM211.511 130.426C220.175 130.426 227.091 126.059 232.26 117.324C237.429 108.59 239.989 95.488 239.94 78.0189C239.94 66.5208 238.758 56.9473 236.395 49.2984C234.082 41.6495 230.784 35.9005 226.501 32.0514C222.267 28.2023 217.27 26.2777 211.511 26.2777C202.896 26.2777 196.004 30.5956 190.835 39.2315C185.666 47.8674 183.057 60.7965 183.008 78.0189C183.008 89.6649 184.165 99.3865 186.478 107.183C188.841 114.931 192.164 120.754 196.447 124.653C200.73 128.502 205.751 130.426 211.511 130.426Z" fill="#2862FF"/>
<path d="M293.087 127.021V101.78L356.222 2.07261H377.931V37.0108H365.083L325.282 100.151V101.336H415V127.021H293.087ZM365.674 153.669V119.323L366.265 108.146V2.07261H396.244V153.669H365.674Z" fill="#2862FF"/>
</mask>
<g mask="url(#mask1_21_14)">
<rect x="9" y="93.4" width="406" height="31.4" fill="#56EBFF"/>
</g>
<mask id="mask2_21_14" style="mask-type:alpha" maskUnits="userSpaceOnUse" x="26" y="0" width="406" height="157">
<path d="M26 127.021V101.78L89.1346 2.07261H110.844V37.0108H97.9956L58.195 100.151V101.336H147.913V127.021H26ZM98.5864 153.669V119.323L99.1771 108.146V2.07261H129.157V153.669H98.5864Z" fill="#2862FF"/>
<path d="M228.511 157C215.81 156.951 204.881 153.817 195.725 147.599C186.618 141.381 179.603 132.375 174.68 120.581C169.807 108.787 167.395 94.5997 167.444 78.0189C167.444 61.4873 169.881 47.3986 174.754 35.7525C179.677 24.1064 186.692 15.2485 195.799 9.1787C204.955 3.05957 215.859 0 228.511 0C241.162 0 252.042 3.05957 261.149 9.1787C270.305 15.2978 277.345 24.1804 282.268 35.8265C287.19 47.4232 289.627 61.4873 289.578 78.0189C289.578 94.6491 287.116 108.861 282.194 120.655C277.32 132.449 270.33 141.455 261.223 147.673C252.116 153.891 241.212 157 228.511 157ZM228.511 130.426C237.175 130.426 244.091 126.059 249.26 117.324C254.429 108.59 256.989 95.488 256.94 78.0189C256.94 66.5208 255.758 56.9473 253.395 49.2984C251.082 41.6495 247.784 35.9005 243.501 32.0514C239.267 28.2023 234.27 26.2777 228.511 26.2777C219.896 26.2777 213.004 30.5956 207.835 39.2315C202.666 47.8674 200.057 60.7965 200.008 78.0189C200.008 89.6649 201.165 99.3865 203.478 107.183C205.841 114.931 209.164 120.754 213.447 124.653C217.73 128.502 222.751 130.426 228.511 130.426Z" fill="#2862FF"/>
<path d="M310.087 127.021V101.78L373.222 2.07261H394.931V37.0108H382.083L342.282 100.151V101.336H432V127.021H310.087ZM382.674 153.669V119.323L383.265 108.146V2.07261H413.244V153.669H382.674Z" fill="#2862FF"/>
</mask>
<g mask="url(#mask2_21_14)">
<rect x="26" y="62" width="406" height="31.4" fill="#56EBFF"/>
</g>
<mask id="mask3_21_14" style="mask-type:alpha" maskUnits="userSpaceOnUse" x="0" y="11" width="406" height="157">
<path d="M0 138.021V112.78L63.1346 13.0726H84.8441V48.0108H71.9956L32.195 111.151V112.336H121.913V138.021H0ZM72.5864 164.669V130.323L73.1771 119.146V13.0726H103.157V164.669H72.5864Z" fill="#2862FF"/>
<path d="M202.511 168C189.81 167.951 178.881 164.817 169.725 158.599C160.618 152.381 153.603 143.375 148.68 131.581C143.807 119.787 141.395 105.6 141.444 89.0189C141.444 72.4873 143.881 58.3986 148.754 46.7525C153.677 35.1064 160.692 26.2485 169.799 20.1787C178.955 14.0596 189.859 11 202.511 11C215.162 11 226.042 14.0596 235.149 20.1787C244.305 26.2978 251.345 35.1804 256.268 46.8265C261.19 58.4232 263.627 72.4873 263.578 89.0189C263.578 105.649 261.116 119.861 256.194 131.655C251.32 143.449 244.33 152.455 235.223 158.673C226.116 164.891 215.212 168 202.511 168ZM202.511 141.426C211.175 141.426 218.091 137.059 223.26 128.324C228.429 119.59 230.989 106.488 230.94 89.0189C230.94 77.5208 229.758 67.9473 227.395 60.2984C225.082 52.6495 221.784 46.9005 217.501 43.0514C213.267 39.2023 208.27 37.2777 202.511 37.2777C193.896 37.2777 187.004 41.5956 181.835 50.2315C176.666 58.8674 174.057 71.7965 174.008 89.0189C174.008 100.665 175.165 110.386 177.478 118.183C179.841 125.931 183.164 131.754 187.447 135.653C191.73 139.502 196.751 141.426 202.511 141.426Z" fill="#2862FF"/>
<path d="M284.087 138.021V112.78L347.222 13.0726H368.931V48.0108H356.083L316.282 111.151V112.336H406V138.021H284.087ZM356.674 164.669V130.323L357.265 119.146V13.0726H387.244V164.669H356.674Z" fill="#2862FF"/>
</mask>
<g mask="url(#mask3_21_14)">
<rect y="41.6" width="406" height="31.4" fill="#56EBFF"/>
</g>
<mask id="mask4_21_14" style="mask-type:alpha" maskUnits="userSpaceOnUse" x="18" y="0" width="406" height="157">
<path d="M18 127.021V101.78L81.1346 2.07261H102.844V37.0108H89.9956L50.195 100.151V101.336H139.913V127.021H18ZM90.5864 153.669V119.323L91.1771 108.146V2.07261H121.157V153.669H90.5864Z" fill="#2862FF"/>
<path d="M220.511 157C207.81 156.951 196.881 153.817 187.725 147.599C178.618 141.381 171.603 132.375 166.68 120.581C161.807 108.787 159.395 94.5997 159.444 78.0189C159.444 61.4873 161.881 47.3986 166.754 35.7525C171.677 24.1064 178.692 15.2485 187.799 9.1787C196.955 3.05957 207.859 0 220.511 0C233.162 0 244.042 3.05957 253.149 9.1787C262.305 15.2978 269.345 24.1804 274.268 35.8265C279.19 47.4232 281.627 61.4873 281.578 78.0189C281.578 94.6491 279.116 108.861 274.194 120.655C269.32 132.449 262.33 141.455 253.223 147.673C244.116 153.891 233.212 157 220.511 157ZM220.511 130.426C229.175 130.426 236.091 126.059 241.26 117.324C246.429 108.59 248.989 95.488 248.94 78.0189C248.94 66.5208 247.758 56.9473 245.395 49.2984C243.082 41.6495 239.784 35.9005 235.501 32.0514C231.267 28.2023 226.27 26.2777 220.511 26.2777C211.896 26.2777 205.004 30.5956 199.835 39.2315C194.666 47.8674 192.057 60.7965 192.008 78.0189C192.008 89.6649 193.165 99.3865 195.478 107.183C197.841 114.931 201.164 120.754 205.447 124.653C209.73 128.502 214.751 130.426 220.511 130.426Z" fill="#2862FF"/>
<path d="M302.087 127.021V101.78L365.222 2.07261H386.931V37.0108H374.083L334.282 100.151V101.336H424V127.021H302.087ZM374.674 153.669V119.323L375.265 108.146V2.07261H405.244V153.669H374.674Z" fill="#2862FF"/>
</mask>
<g mask="url(#mask4_21_14)">
<rect x="18" width="406" height="31.4" fill="#56EBFF"/>
</g>
<mask id="mask5_21_14" style="mask-type:alpha" maskUnits="userSpaceOnUse" x="46" y="0" width="406" height="157">
<path d="M46 127.021V101.78L109.135 2.07261H130.844V37.0108H117.996L78.195 100.151V101.336H167.913V127.021H46ZM118.586 153.669V119.323L119.177 108.146V2.07261H149.157V153.669H118.586Z" fill="#2862FF"/>
<path d="M248.511 157C235.81 156.951 224.881 153.817 215.725 147.599C206.618 141.381 199.603 132.375 194.68 120.581C189.807 108.787 187.395 94.5997 187.444 78.0189C187.444 61.4873 189.881 47.3986 194.754 35.7525C199.677 24.1064 206.692 15.2485 215.799 9.1787C224.955 3.05957 235.859 0 248.511 0C261.162 0 272.042 3.05957 281.149 9.1787C290.305 15.2978 297.345 24.1804 302.268 35.8265C307.19 47.4232 309.627 61.4873 309.578 78.0189C309.578 94.6491 307.116 108.861 302.194 120.655C297.32 132.449 290.33 141.455 281.223 147.673C272.116 153.891 261.212 157 248.511 157ZM248.511 130.426C257.175 130.426 264.091 126.059 269.26 117.324C274.429 108.59 276.989 95.488 276.94 78.0189C276.94 66.5208 275.758 56.9473 273.395 49.2984C271.082 41.6495 267.783 35.9005 263.501 32.0514C259.267 28.2023 254.27 26.2777 248.511 26.2777C239.896 26.2777 233.004 30.5956 227.835 39.2315C222.666 47.8674 220.057 60.7965 220.008 78.0189C220.008 89.6649 221.165 99.3865 223.478 107.183C225.841 114.931 229.164 120.754 233.447 124.653C237.73 128.502 242.751 130.426 248.511 130.426Z" fill="#2862FF"/>
<path d="M330.087 127.021V101.78L393.222 2.07261H414.931V37.0108H402.083L362.282 100.151V101.336H452V127.021H330.087ZM402.674 153.669V119.323L403.264 108.146V2.07261H433.244V153.669H402.674Z" fill="#2862FF"/>
</mask>
<g mask="url(#mask5_21_14)">
<rect x="46" y="124.6" width="406" height="32.4" fill="#FF0000"/>
</g>
<mask id="mask6_21_14" style="mask-type:alpha" maskUnits="userSpaceOnUse" x="37" y="0" width="406" height="157">
<path d="M37 127.021V101.78L100.135 2.07261H121.844V37.0108H108.996L69.195 100.151V101.336H158.913V127.021H37ZM109.586 153.669V119.323L110.177 108.146V2.07261H140.157V153.669H109.586Z" fill="#2862FF"/>
<path d="M239.511 157C226.81 156.951 215.881 153.817 206.725 147.599C197.618 141.381 190.603 132.375 185.68 120.581C180.807 108.787 178.395 94.5997 178.444 78.0189C178.444 61.4873 180.881 47.3986 185.754 35.7525C190.677 24.1064 197.692 15.2485 206.799 9.1787C215.955 3.05957 226.859 0 239.511 0C252.162 0 263.042 3.05957 272.149 9.1787C281.305 15.2978 288.345 24.1804 293.268 35.8265C298.19 47.4232 300.627 61.4873 300.578 78.0189C300.578 94.6491 298.116 108.861 293.194 120.655C288.32 132.449 281.33 141.455 272.223 147.673C263.116 153.891 252.212 157 239.511 157ZM239.511 130.426C248.175 130.426 255.091 126.059 260.26 117.324C265.429 108.59 267.989 95.488 267.94 78.0189C267.94 66.5208 266.758 56.9473 264.395 49.2984C262.082 41.6495 258.784 35.9005 254.501 32.0514C250.267 28.2023 245.27 26.2777 239.511 26.2777C230.896 26.2777 224.004 30.5956 218.835 39.2315C213.666 47.8674 211.057 60.7965 211.008 78.0189C211.008 89.6649 212.165 99.3865 214.478 107.183C216.841 114.931 220.164 120.754 224.447 124.653C228.73 128.502 233.751 130.426 239.511 130.426Z" fill="#2862FF"/>
<path d="M321.087 127.021V101.78L384.222 2.07261H405.931V37.0108H393.083L353.282 100.151V101.336H443V127.021H321.087ZM393.674 153.669V119.323L394.265 108.146V2.07261H424.244V153.669H393.674Z" fill="#2862FF"/>
</mask>
<g mask="url(#mask6_21_14)">
<rect x="37" y="93.4" width="406" height="31.4" fill="#FF0000"/>
</g>
<mask id="mask7_21_14" style="mask-type:alpha" maskUnits="userSpaceOnUse" x="37" y="0" width="406" height="157">
<path d="M37 127.021V101.78L100.135 2.07261H121.844V37.0108H108.996L69.195 100.151V101.336H158.913V127.021H37ZM109.586 153.669V119.323L110.177 108.146V2.07261H140.157V153.669H109.586Z" fill="#2862FF"/>
<path d="M239.511 157C226.81 156.951 215.881 153.817 206.725 147.599C197.618 141.381 190.603 132.375 185.68 120.581C180.807 108.787 178.395 94.5997 178.444 78.0189C178.444 61.4873 180.881 47.3986 185.754 35.7525C190.677 24.1064 197.692 15.2485 206.799 9.1787C215.955 3.05957 226.859 0 239.511 0C252.162 0 263.042 3.05957 272.149 9.1787C281.305 15.2978 288.345 24.1804 293.268 35.8265C298.19 47.4232 300.627 61.4873 300.578 78.0189C300.578 94.6491 298.116 108.861 293.194 120.655C288.32 132.449 281.33 141.455 272.223 147.673C263.116 153.891 252.212 157 239.511 157ZM239.511 130.426C248.175 130.426 255.091 126.059 260.26 117.324C265.429 108.59 267.989 95.488 267.94 78.0189C267.94 66.5208 266.758 56.9473 264.395 49.2984C262.082 41.6495 258.784 35.9005 254.501 32.0514C250.267 28.2023 245.27 26.2777 239.511 26.2777C230.896 26.2777 224.004 30.5956 218.835 39.2315C213.666 47.8674 211.057 60.7965 211.008 78.0189C211.008 89.6649 212.165 99.3865 214.478 107.183C216.841 114.931 220.164 120.754 224.447 124.653C228.73 128.502 233.751 130.426 239.511 130.426Z" fill="#2862FF"/>
<path d="M321.087 127.021V101.78L384.222 2.07261H405.931V37.0108H393.083L353.282 100.151V101.336H443V127.021H321.087ZM393.674 153.669V119.323L394.265 108.146V2.07261H424.244V153.669H393.674Z" fill="#2862FF"/>
</mask>
<g mask="url(#mask7_21_14)">
<rect x="37" y="62" width="406" height="31.4" fill="#FF0000"/>
</g>
<mask id="mask8_21_14" style="mask-type:alpha" maskUnits="userSpaceOnUse" x="12" y="0" width="406" height="157">
<path d="M12 127.021V101.78L75.1346 2.07261H96.8441V37.0108H83.9956L44.195 100.151V101.336H133.913V127.021H12ZM84.5864 153.669V119.323L85.1771 108.146V2.07261H115.157V153.669H84.5864Z" fill="#2862FF"/>
<path d="M214.511 157C201.81 156.951 190.881 153.817 181.725 147.599C172.618 141.381 165.603 132.375 160.68 120.581C155.807 108.787 153.395 94.5997 153.444 78.0189C153.444 61.4873 155.881 47.3986 160.754 35.7525C165.677 24.1064 172.692 15.2485 181.799 9.1787C190.955 3.05957 201.859 0 214.511 0C227.162 0 238.042 3.05957 247.149 9.1787C256.305 15.2978 263.345 24.1804 268.268 35.8265C273.19 47.4232 275.627 61.4873 275.578 78.0189C275.578 94.6491 273.116 108.861 268.194 120.655C263.32 132.449 256.33 141.455 247.223 147.673C238.116 153.891 227.212 157 214.511 157ZM214.511 130.426C223.175 130.426 230.091 126.059 235.26 117.324C240.429 108.59 242.989 95.488 242.94 78.0189C242.94 66.5208 241.758 56.9473 239.395 49.2984C237.082 41.6495 233.784 35.9005 229.501 32.0514C225.267 28.2023 220.27 26.2777 214.511 26.2777C205.896 26.2777 199.004 30.5956 193.835 39.2315C188.666 47.8674 186.057 60.7965 186.008 78.0189C186.008 89.6649 187.165 99.3865 189.478 107.183C191.841 114.931 195.164 120.754 199.447 124.653C203.73 128.502 208.751 130.426 214.511 130.426Z" fill="#2862FF"/>
<path d="M296.087 127.021V101.78L359.222 2.07261H380.931V37.0108H368.083L328.282 100.151V101.336H418V127.021H296.087ZM368.674 153.669V119.323L369.265 108.146V2.07261H399.244V153.669H368.674Z" fill="#2862FF"/>
</mask>
<g mask="url(#mask8_21_14)">
<rect x="12" y="30.6" width="406" height="31.4" fill="#FF0000"/>
</g>
<mask id="mask9_21_14" style="mask-type:alpha" maskUnits="userSpaceOnUse" x="38" y="0" width="406" height="157">
<path d="M38 127.021V101.78L101.135 2.07261H122.844V37.0108H109.996L70.195 100.151V101.336H159.913V127.021H38ZM110.586 153.669V119.323L111.177 108.146V2.07261H141.157V153.669H110.586Z" fill="#2862FF"/>
<path d="M240.511 157C227.81 156.951 216.881 153.817 207.725 147.599C198.618 141.381 191.603 132.375 186.68 120.581C181.807 108.787 179.395 94.5997 179.444 78.0189C179.444 61.4873 181.881 47.3986 186.754 35.7525C191.677 24.1064 198.692 15.2485 207.799 9.1787C216.955 3.05957 227.859 0 240.511 0C253.162 0 264.042 3.05957 273.149 9.1787C282.305 15.2978 289.345 24.1804 294.268 35.8265C299.19 47.4232 301.627 61.4873 301.578 78.0189C301.578 94.6491 299.116 108.861 294.194 120.655C289.32 132.449 282.33 141.455 273.223 147.673C264.116 153.891 253.212 157 240.511 157ZM240.511 130.426C249.175 130.426 256.091 126.059 261.26 117.324C266.429 108.59 268.989 95.488 268.94 78.0189C268.94 66.5208 267.758 56.9473 265.395 49.2984C263.082 41.6495 259.784 35.9005 255.501 32.0514C251.267 28.2023 246.27 26.2777 240.511 26.2777C231.896 26.2777 225.004 30.5956 219.835 39.2315C214.666 47.8674 212.057 60.7965 212.008 78.0189C212.008 89.6649 213.165 99.3865 215.478 107.183C217.841 114.931 221.164 120.754 225.447 124.653C229.73 128.502 234.751 130.426 240.511 130.426Z" fill="#2862FF"/>
<path d="M322.087 127.021V101.78L385.222 2.07261H406.931V37.0108H394.083L354.282 100.151V101.336H444V127.021H322.087ZM394.674 153.669V119.323L395.265 108.146V2.07261H425.244V153.669H394.674Z" fill="#2862FF"/>
</mask>
<g mask="url(#mask9_21_14)">
<rect x="38" width="406" height="31.4" fill="#FF0000"/>
</g>
<mask id="mask10_21_14" style="mask-type:alpha" maskUnits="userSpaceOnUse" x="33" y="0" width="406" height="157">
<path d="M33 127.021V101.78L96.1346 2.07261H117.844V37.0108H104.996L65.195 100.151V101.336H154.913V127.021H33ZM105.586 153.669V119.323L106.177 108.146V2.07261H136.157V153.669H105.586Z" fill="#2862FF"/>
<path d="M235.511 157C222.81 156.951 211.881 153.817 202.725 147.599C193.618 141.381 186.603 132.375 181.68 120.581C176.807 108.787 174.395 94.5997 174.444 78.0189C174.444 61.4873 176.881 47.3986 181.754 35.7525C186.677 24.1064 193.692 15.2485 202.799 9.1787C211.955 3.05957 222.859 0 235.511 0C248.162 0 259.042 3.05957 268.149 9.1787C277.305 15.2978 284.345 24.1804 289.268 35.8265C294.19 47.4232 296.627 61.4873 296.578 78.0189C296.578 94.6491 294.116 108.861 289.194 120.655C284.32 132.449 277.33 141.455 268.223 147.673C259.116 153.891 248.212 157 235.511 157ZM235.511 130.426C244.175 130.426 251.091 126.059 256.26 117.324C261.429 108.59 263.989 95.488 263.94 78.0189C263.94 66.5208 262.758 56.9473 260.395 49.2984C258.082 41.6495 254.783 35.9005 250.501 32.0514C246.267 28.2023 241.27 26.2777 235.511 26.2777C226.896 26.2777 220.004 30.5956 214.835 39.2315C209.666 47.8674 207.057 60.7965 207.008 78.0189C207.008 89.6649 208.165 99.3865 210.478 107.183C212.841 114.931 216.164 120.754 220.447 124.653C224.73 128.502 229.751 130.426 235.511 130.426Z" fill="#2862FF"/>
<path d="M317.087 127.021V101.78L380.222 2.07261H401.931V37.0108H389.083L349.282 100.151V101.336H439V127.021H317.087ZM389.674 153.669V119.323L390.264 108.146V2.07261H420.244V153.669H389.674Z" fill="#2862FF"/>
</mask>
<g mask="url(#mask10_21_14)">
<rect x="33" y="124.6" width="406" height="32.4" fill="black"/>
</g>
<mask id="mask11_21_14" style="mask-type:alpha" maskUnits="userSpaceOnUse" x="13" y="0" width="406" height="157">
<path d="M13 127.021V101.78L76.1346 2.07261H97.8441V37.0108H84.9956L45.195 100.151V101.336H134.913V127.021H13ZM85.5864 153.669V119.323L86.1771 108.146V2.07261H116.157V153.669H85.5864Z" fill="#2862FF"/>
<path d="M215.511 157C202.81 156.951 191.881 153.817 182.725 147.599C173.618 141.381 166.603 132.375 161.68 120.581C156.807 108.787 154.395 94.5997 154.444 78.0189C154.444 61.4873 156.881 47.3986 161.754 35.7525C166.677 24.1064 173.692 15.2485 182.799 9.1787C191.955 3.05957 202.859 0 215.511 0C228.162 0 239.042 3.05957 248.149 9.1787C257.305 15.2978 264.345 24.1804 269.268 35.8265C274.19 47.4232 276.627 61.4873 276.578 78.0189C276.578 94.6491 274.116 108.861 269.194 120.655C264.32 132.449 257.33 141.455 248.223 147.673C239.116 153.891 228.212 157 215.511 157ZM215.511 130.426C224.175 130.426 231.091 126.059 236.26 117.324C241.429 108.59 243.989 95.488 243.94 78.0189C243.94 66.5208 242.758 56.9473 240.395 49.2984C238.082 41.6495 234.784 35.9005 230.501 32.0514C226.267 28.2023 221.27 26.2777 215.511 26.2777C206.896 26.2777 200.004 30.5956 194.835 39.2315C189.666 47.8674 187.057 60.7965 187.008 78.0189C187.008 89.6649 188.165 99.3865 190.478 107.183C192.841 114.931 196.164 120.754 200.447 124.653C204.73 128.502 209.751 130.426 215.511 130.426Z" fill="#2862FF"/>
<path d="M297.087 127.021V101.78L360.222 2.07261H381.931V37.0108H369.083L329.282 100.151V101.336H419V127.021H297.087ZM369.674 153.669V119.323L370.265 108.146V2.07261H400.244V153.669H369.674Z" fill="#2862FF"/>
</mask>
<g mask="url(#mask11_21_14)">
<rect x="13" y="93.4" width="406" height="31.4" fill="black"/>
</g>
<mask id="mask12_21_14" style="mask-type:alpha" maskUnits="userSpaceOnUse" x="39" y="0" width="406" height="157">
<path d="M39 127.021V101.78L102.135 2.07261H123.844V37.0108H110.996L71.195 100.151V101.336H160.913V127.021H39ZM111.586 153.669V119.323L112.177 108.146V2.07261H142.157V153.669H111.586Z" fill="#2862FF"/>
<path d="M241.511 157C228.81 156.951 217.881 153.817 208.725 147.599C199.618 141.381 192.603 132.375 187.68 120.581C182.807 108.787 180.395 94.5997 180.444 78.0189C180.444 61.4873 182.881 47.3986 187.754 35.7525C192.677 24.1064 199.692 15.2485 208.799 9.1787C217.955 3.05957 228.859 0 241.511 0C254.162 0 265.042 3.05957 274.149 9.1787C283.305 15.2978 290.345 24.1804 295.268 35.8265C300.19 47.4232 302.627 61.4873 302.578 78.0189C302.578 94.6491 300.116 108.861 295.194 120.655C290.32 132.449 283.33 141.455 274.223 147.673C265.116 153.891 254.212 157 241.511 157ZM241.511 130.426C250.175 130.426 257.091 126.059 262.26 117.324C267.429 108.59 269.989 95.488 269.94 78.0189C269.94 66.5208 268.758 56.9473 266.395 49.2984C264.082 41.6495 260.784 35.9005 256.501 32.0514C252.267 28.2023 247.27 26.2777 241.511 26.2777C232.896 26.2777 226.004 30.5956 220.835 39.2315C215.666 47.8674 213.057 60.7965 213.008 78.0189C213.008 89.6649 214.165 99.3865 216.478 107.183C218.841 114.931 222.164 120.754 226.447 124.653C230.73 128.502 235.751 130.426 241.511 130.426Z" fill="#2862FF"/>
<path d="M323.087 127.021V101.78L386.222 2.07261H407.931V37.0108H395.083L355.282 100.151V101.336H445V127.021H323.087ZM395.674 153.669V119.323L396.265 108.146V2.07261H426.244V153.669H395.674Z" fill="#2862FF"/>
</mask>
<g mask="url(#mask12_21_14)">
<rect x="39" y="62" width="406" height="31.4" fill="black"/>
</g>
<mask id="mask13_21_14" style="mask-type:alpha" maskUnits="userSpaceOnUse" x="16" y="0" width="406" height="157">
<path d="M16 127.021V101.78L79.1346 2.07261H100.844V37.0108H87.9956L48.195 100.151V101.336H137.913V127.021H16ZM88.5864 153.669V119.323L89.1771 108.146V2.07261H119.157V153.669H88.5864Z" fill="#2862FF"/>
<path d="M218.511 157C205.81 156.951 194.881 153.817 185.725 147.599C176.618 141.381 169.603 132.375 164.68 120.581C159.807 108.787 157.395 94.5997 157.444 78.0189C157.444 61.4873 159.881 47.3986 164.754 35.7525C169.677 24.1064 176.692 15.2485 185.799 9.1787C194.955 3.05957 205.859 0 218.511 0C231.162 0 242.042 3.05957 251.149 9.1787C260.305 15.2978 267.345 24.1804 272.268 35.8265C277.19 47.4232 279.627 61.4873 279.578 78.0189C279.578 94.6491 277.116 108.861 272.194 120.655C267.32 132.449 260.33 141.455 251.223 147.673C242.116 153.891 231.212 157 218.511 157ZM218.511 130.426C227.175 130.426 234.091 126.059 239.26 117.324C244.429 108.59 246.989 95.488 246.94 78.0189C246.94 66.5208 245.758 56.9473 243.395 49.2984C241.082 41.6495 237.784 35.9005 233.501 32.0514C229.267 28.2023 224.27 26.2777 218.511 26.2777C209.896 26.2777 203.004 30.5956 197.835 39.2315C192.666 47.8674 190.057 60.7965 190.008 78.0189C190.008 89.6649 191.165 99.3865 193.478 107.183C195.841 114.931 199.164 120.754 203.447 124.653C207.73 128.502 212.751 130.426 218.511 130.426Z" fill="#2862FF"/>
<path d="M300.087 127.021V101.78L363.222 2.07261H384.931V37.0108H372.083L332.282 100.151V101.336H422V127.021H300.087ZM372.674 153.669V119.323L373.265 108.146V2.07261H403.244V153.669H372.674Z" fill="#2862FF"/>
</mask>
<g mask="url(#mask13_21_14)">
<rect x="16" y="30.6" width="406" height="31.4" fill="black"/>
</g>
<mask id="mask14_21_14" style="mask-type:alpha" maskUnits="userSpaceOnUse" x="23" y="0" width="406" height="157">
<path d="M23 127.021V101.78L86.1346 2.07261H107.844V37.0108H94.9956L55.195 100.151V101.336H144.913V127.021H23ZM95.5864 153.669V119.323L96.1771 108.146V2.07261H126.157V153.669H95.5864Z" fill="#2862FF"/>
<path d="M225.511 157C212.81 156.951 201.881 153.817 192.725 147.599C183.618 141.381 176.603 132.375 171.68 120.581C166.807 108.787 164.395 94.5997 164.444 78.0189C164.444 61.4873 166.881 47.3986 171.754 35.7525C176.677 24.1064 183.692 15.2485 192.799 9.1787C201.955 3.05957 212.859 0 225.511 0C238.162 0 249.042 3.05957 258.149 9.1787C267.305 15.2978 274.345 24.1804 279.268 35.8265C284.19 47.4232 286.627 61.4873 286.578 78.0189C286.578 94.6491 284.116 108.861 279.194 120.655C274.32 132.449 267.33 141.455 258.223 147.673C249.116 153.891 238.212 157 225.511 157ZM225.511 130.426C234.175 130.426 241.091 126.059 246.26 117.324C251.429 108.59 253.989 95.488 253.94 78.0189C253.94 66.5208 252.758 56.9473 250.395 49.2984C248.082 41.6495 244.784 35.9005 240.501 32.0514C236.267 28.2023 231.27 26.2777 225.511 26.2777C216.896 26.2777 210.004 30.5956 204.835 39.2315C199.666 47.8674 197.057 60.7965 197.008 78.0189C197.008 89.6649 198.165 99.3865 200.478 107.183C202.841 114.931 206.164 120.754 210.447 124.653C214.73 128.502 219.751 130.426 225.511 130.426Z" fill="#2862FF"/>
<path d="M307.087 127.021V101.78L370.222 2.07261H391.931V37.0108H379.083L339.282 100.151V101.336H429V127.021H307.087ZM379.674 153.669V119.323L380.265 108.146V2.07261H410.244V153.669H379.674Z" fill="#2862FF"/>
</mask>
<g mask="url(#mask14_21_14)">
<rect x="23" width="406" height="31.4" fill="black"/>
</g>
</svg>
